<svg id="Layer_1" data-name="Layer 1" xmlns="http://www.w3.org/2000/svg" width="106.77" height="45.75" viewBox="0 0 106.77 45.75"><defs><style>.cls-1{opacity:0.45;}.cls-2{fill:#010101;}</style></defs><title>direct-energy</title><g class="cls-1"><path class="cls-2" d="M112.83,59.32c-2.8.06-4.21,1-4.21,3.79V70h2.64V63.11c0-1.32.5-1.52,1.52-1.56a2.6,2.6,0,0,0,1.46-.24,1.92,1.92,0,0,0,.74-1.9c-0.72,0-1.29-.11-2.16-0.09" transform="translate(-34.12 -37.12)"/><path class="cls-2" d="M84.85,67.69H77.93V63.75h4.42c1.43,0,2.14-.8,1.94-2.32H77.93V57.86h5c1.43,0,2.14-.8,1.95-2.31H75.2V70h9.65V67.69Z" transform="translate(-34.12 -37.12)"/><path class="cls-2" d="M103,61.47c1.39,0,2,.5,2,1.34s-0.13,1.3-1.75,1.3a17.15,17.15,0,0,1-2.81-.17c0.14-2.06.91-2.47,2.62-2.47M103.2,68c-1.82,0-2.59-.46-2.81-2.09a19.16,19.16,0,0,0,3.07.14c3,0,3.92-1.11,3.92-3.33s-1.32-3.44-4.33-3.44c-3.48,0-5.41,1.56-5.41,5.45,0,4.15,1.84,5.45,5.34,5.45a20.67,20.67,0,0,0,3.7-.37l-0.13-2.14a21.53,21.53,0,0,1-3.35.32" transform="translate(-34.12 -37.12)"/><path class="cls-2" d="M91.28,61.58c1.77,0,2.36.39,2.36,1.8V70h2.64V63.34c0-3.05-1.6-4-5-4-3.18,0-5,1-5,4V70h2.64V63.38c0-1.41.59-1.8,2.36-1.8" transform="translate(-34.12 -37.12)"/><path class="cls-2" d="M119.42,67.52c-1.23,0-1.64-.76-1.64-2.9,0-2.47.67-3.2,2.25-3.2a14.31,14.31,0,0,1,2.3.19c0,1.47,0,3.55,0,5.29a8.65,8.65,0,0,1-2.9.62m0.65-8.29c-3.55,0-5,1.34-5,5.52,0,3.61,1.13,5.17,3.57,5.17a10.51,10.51,0,0,0,3.66-.88V70c0,1.45-1,1.64-2,1.69a26,26,0,0,1-3.55-.17l-0.17,2.12a32.21,32.21,0,0,0,3.63.22c3.12-.06,4.76-1,4.76-3.79V59.84a25.72,25.72,0,0,0-4.91-.61" transform="translate(-34.12 -37.12)"/><path class="cls-2" d="M136.3,59.36h-2.64V66.5a10.59,10.59,0,0,1-3.31.91,1.1,1.1,0,0,1-1.17-1.19v-7c-1.3-.15-2.64.21-2.64,1.67v5.39c0,2.29.8,3.53,3,3.53a11.49,11.49,0,0,0,4.16-1.17V70c0,1.45-1,1.65-2.16,1.69a27.15,27.15,0,0,1-3.66-.17l-0.26,2.19a33.53,33.53,0,0,0,3.77.22c3.24-.06,5-1,5-3.79V59.36Z" transform="translate(-34.12 -37.12)"/><path class="cls-2" d="M80.66,49.18H77.93V39.53h2.73c3,0,3.74.91,3.74,4.87s-0.71,4.78-3.74,4.78m0,2.4c4.85,0,6.56-2.21,6.56-7.18,0-5.43-1.71-7.27-6.56-7.27H75.2V51.58h5.45Z" transform="translate(-34.12 -37.12)"/><path class="cls-2" d="M88.7,40.09h2.64v-2.6c-1.3-.15-2.64.22-2.64,1.67v0.93Z" transform="translate(-34.12 -37.12)"/><rect class="cls-2" x="54.56" y="3.89" width="2.66" height="10.56"/><path class="cls-2" d="M118.16,49.44a22.31,22.31,0,0,1-2.49.17c-2.27,0-2.77-.69-2.77-3.37s0.63-3.07,2.12-3.07c0.5,0,1.23.06,1.6,0.09,1.23,0.07,1.77-.75,1.71-2.06a20,20,0,0,0-3.22-.3c-3.46,0-4.89,1.36-4.89,5.34,0,4.26,1.58,5.56,5.15,5.56a24,24,0,0,0,2.92-.22Z" transform="translate(-34.12 -37.12)"/><path class="cls-2" d="M124,43.12h1.88c1.38,0,1.9-.63,1.78-2.1H124V37.49c-1.3-.15-2.64.22-2.64,1.67V41h-2v2.1h2V47.9c0,2.64,1.08,3.79,3.83,3.79a16.67,16.67,0,0,0,2.23-.15l-0.06-2.1c-0.5,0-1.24.09-1.84,0.09A1.26,1.26,0,0,1,124,48.05V43.12Z" transform="translate(-34.12 -37.12)"/><path class="cls-2" d="M104.73,43.05c1.38,0,1.95.5,1.95,1.34s-0.13,1.3-1.75,1.3a17.33,17.33,0,0,1-2.81-.17c0.14-2.06.92-2.47,2.62-2.47M105,49.61c-1.82,0-2.58-.46-2.81-2.09a19.07,19.07,0,0,0,3.07.14c3,0,3.92-1.1,3.92-3.33s-1.32-3.44-4.33-3.44c-3.48,0-5.41,1.56-5.41,5.45,0,4.15,1.84,5.45,5.35,5.45a20.74,20.74,0,0,0,3.7-.37l-0.13-2.14a21.58,21.58,0,0,1-3.35.32" transform="translate(-34.12 -37.12)"/><path class="cls-2" d="M97.15,40.89c-2.79.06-4.2,1-4.2,3.79V51.6h2.64V44.68c0-1.32.5-1.52,1.52-1.56a2.59,2.59,0,0,0,1.46-.24A1.92,1.92,0,0,0,99.3,41c-0.71,0-1.29-.11-2.16-0.09" transform="translate(-34.12 -37.12)"/><path class="cls-2" d="M34.12,52.22V37.13h13.6c-1.68,5.57-1,9.76-.88,9.79a23.12,23.12,0,0,0,1.69-3.14C50.27,47.22,50,53.08,50,53.08c-5.61,1-12,0-15.87-.86m15.11-9.58c0.63-.85,1.31-2,1.57-1.89s1,2.87,1.52,5.74a56.32,56.32,0,0,1,.54,5.78c0.26,0.07,2.62-1.76,2.86-1.79s0,1.35-1,2.45A23.77,23.77,0,0,1,67,50.77V37.13H49.08a15.21,15.21,0,0,0,.14,5.51m9,12.42s-5.52.32-5.64,0.42S52.36,57,51.8,59a11.49,11.49,0,0,1,1.84-1.84A42,42,0,0,1,49.71,70H67V52.08c-3.73.5-8.38,1.42-8.79,3m-7.67,4.86A9.1,9.1,0,0,1,48.94,61c-0.23-.17,1-5.42.91-5.69s-4.1-.18-7-0.81c0,0,2,1.46,1.51,1.45s-5.74.38-10.23-1.87V70H48.8c0.64-2.77,1.71-7.8,1.72-10.07" transform="translate(-34.12 -37.12)"/><path class="cls-2" d="M75.27,82.78V76.09H77.9c1.27,0,1.78.52,1.78,1.43v0.69a1.06,1.06,0,0,1-.74,1.08,1.18,1.18,0,0,1,1,1.23v0.71c0,0.94-.61,1.54-1.83,1.54H75.27Zm3.14-5.1c0-.37-0.2-0.54-0.67-0.54H76.54v1.76h1.2a0.57,0.57,0,0,0,.67-0.62V77.67Zm0.23,2.9a0.59,0.59,0,0,0-.7-0.67h-1.4v1.83h1.29c0.57,0,.81-0.16.81-0.65v-0.5Z" transform="translate(-34.12 -37.12)"/><path class="cls-2" d="M82.19,77.88V81.3a0.34,0.34,0,0,0,.39.39,3.41,3.41,0,0,0,1.27-.41v-3.4h1.22v4.89H84.15L84,82.36a4.86,4.86,0,0,1-2,.51c-0.81,0-1.1-.57-1.1-1.45V77.88h1.22Z" transform="translate(-34.12 -37.12)"/><path class="cls-2" d="M88,82.88a5.77,5.77,0,0,1-1.69-.28l0.17-.94a5.41,5.41,0,0,0,1.46.21c0.54,0,.62-0.12.62-0.49s-0.06-.45-0.86-0.64c-1.19-.29-1.33-0.59-1.33-1.54s0.43-1.42,1.83-1.42a6.42,6.42,0,0,1,1.47.17l-0.12,1a8.58,8.58,0,0,0-1.35-.14c-0.53,0-.62.12-0.62,0.42s0,0.42.69,0.59c1.37,0.36,1.5.54,1.5,1.55S89.48,82.88,88,82.88" transform="translate(-34.12 -37.12)"/><path class="cls-2" d="M91,75.78H92.2v1.42H91V75.78Zm0,2.11H92.2v4.89H91V77.88Z" transform="translate(-34.12 -37.12)"/><path class="cls-2" d="M96.5,82.78V79.36A0.34,0.34,0,0,0,96.11,79a3.39,3.39,0,0,0-1.28.41v3.39H93.61V77.88h0.93l0.12,0.41a4.9,4.9,0,0,1,2-.51c0.81,0,1.11.57,1.11,1.45v3.55H96.5Z" transform="translate(-34.12 -37.12)"/><path class="cls-2" d="M101,81.87a5.08,5.08,0,0,0,1.5-.23l0.19,0.93a5.26,5.26,0,0,1-1.8.31c-1.54,0-2.07-.71-2.07-1.89v-1.3a1.75,1.75,0,0,1,2-1.91,1.7,1.7,0,0,1,1.92,2v1h-2.72V81c0,0.59.21,0.83,1,.83m-1-2.06h1.56V79.57a0.66,0.66,0,0,0-.74-0.78,0.71,0.71,0,0,0-.81.78v0.24Z" transform="translate(-34.12 -37.12)"/><path class="cls-2" d="M105.43,82.88a5.77,5.77,0,0,1-1.69-.28l0.17-.94a5.43,5.43,0,0,0,1.46.21c0.54,0,.62-0.12.62-0.49s-0.06-.45-0.85-0.64c-1.2-.29-1.34-0.59-1.34-1.54s0.43-1.42,1.83-1.42a6.44,6.44,0,0,1,1.47.17l-0.12,1a8.64,8.64,0,0,0-1.35-.14c-0.53,0-.62.12-0.62,0.42s0,0.42.69,0.59c1.37,0.36,1.5.54,1.5,1.55s-0.29,1.53-1.77,1.53" transform="translate(-34.12 -37.12)"/><path class="cls-2" d="M109.92,82.88a5.75,5.75,0,0,1-1.69-.28l0.17-.94a5.46,5.46,0,0,0,1.46.21c0.54,0,.62-0.12.62-0.49s-0.06-.45-0.85-0.64c-1.2-.29-1.33-0.59-1.33-1.54s0.43-1.42,1.83-1.42a6.46,6.46,0,0,1,1.47.17l-0.12,1a8.52,8.52,0,0,0-1.34-.14c-0.53,0-.62.12-0.62,0.42s0,0.42.69,0.59c1.37,0.36,1.5.54,1.5,1.55s-0.29,1.53-1.77,1.53" transform="translate(-34.12 -37.12)"/><path class="cls-2" d="M138.43,68.37H138V68.13h1.11v0.24h-0.43v1.21h-0.26V68.37Zm2.1-.24h0.31l0,1.46h-0.26l0-1-0.3.8H140l-0.3-.8,0,1H139.4l0-1.46h0.32l0.39,1Z" transform="translate(-34.12 -37.12)"/></g></svg>