<svg id="Layer_1" data-name="Layer 1" xmlns="http://www.w3.org/2000/svg" width="123.29" height="30.96" viewBox="0 0 123.29 30.96"><defs><style>.cls-1{opacity:0.45;}.cls-2{fill:#010101;}</style></defs><title>evoqua</title><g class="cls-1"><path class="cls-2" d="M73.4,46.93a6.91,6.91,0,1,0,6.5,9.2H78.11a5,5,0,0,1-4.72,3.11,5.22,5.22,0,0,1-5.1-4.77h12c0-.17,0-0.31,0-0.48A7,7,0,0,0,73.4,46.93Zm-5.1,6a5.18,5.18,0,0,1,10.28,0H68.29Z" transform="translate(-25.86 -44.52)"/><polygon class="cls-2" points="60.98 13.82 56.34 2.75 54.53 2.75 60.09 15.92 61.95 15.92 67.51 2.75 65.7 2.75 60.98 13.82"/><path class="cls-2" d="M100.33,46.93a6.91,6.91,0,1,0,6.91,6.91A7,7,0,0,0,100.33,46.93Zm0,12.3a5.4,5.4,0,1,1,5.2-5.46A5.28,5.28,0,0,1,100.35,59.23Z" transform="translate(-25.86 -44.52)"/><path class="cls-2" d="M116.23,46.35a7.21,7.21,0,1,0,0,14.42,7.65,7.65,0,0,0,4.12-1.17,4,4,0,0,0,3.08,1.17h0.08V59.35h-0.18a2.62,2.62,0,0,1-1.82-.66,6.93,6.93,0,0,0,2.23-5A7.24,7.24,0,0,0,116.23,46.35Zm5.94,7.28a5.78,5.78,0,0,1-1.82,4.05c-2.27-1.93-4.07-3-7-3a9.15,9.15,0,0,0-2.85.44,4.86,4.86,0,0,1-.21-1.46A6,6,0,0,1,122.17,53.63Zm-9,2.48a8.48,8.48,0,0,1,4.23,1.1,15.73,15.73,0,0,1,1.47,1.07l0.31,0.24a5.09,5.09,0,0,1-2.89.81,5.85,5.85,0,0,1-4.4-1.89,4.76,4.76,0,0,1-.74-1A4.84,4.84,0,0,1,113.13,56.12Z" transform="translate(-25.86 -44.52)"/><path class="cls-2" d="M133.54,55.25a5.8,5.8,0,0,1-.45,2.45,3.15,3.15,0,0,1-5.54,0,5.8,5.8,0,0,1-.45-2.45V46.59h-1.55v8.66a7.34,7.34,0,0,0,.53,2.9,4.75,4.75,0,0,0,8.49,0,7.34,7.34,0,0,0,.53-2.9V46.59h-1.55v8.66Z" transform="translate(-25.86 -44.52)"/><path class="cls-2" d="M143.18,46.64l0-.05H141.5l-5.9,13.81-0.05.12h1.62l2-4.63h6.29l2,4.58,0,0.05h1.69Zm1.67,7.83h-5.08l2.57-6Z" transform="translate(-25.86 -44.52)"/><path class="cls-2" d="M67.76,69.45a0.37,0.37,0,0,1,0-.11A0.27,0.27,0,0,1,68,69.08a0.29,0.29,0,0,1,.26.21l1.23,3.54,1.17-3.56a0.25,0.25,0,0,1,.25-0.2h0a0.26,0.26,0,0,1,.25.2l1.17,3.56,1.24-3.56a0.26,0.26,0,0,1,.24-0.2,0.26,0.26,0,0,1,.26.25,0.43,0.43,0,0,1,0,.12l-1.43,4a0.28,0.28,0,0,1-.26.22h0a0.28,0.28,0,0,1-.26-0.22L70.9,70l-1.15,3.43a0.28,0.28,0,0,1-.26.22h0a0.28,0.28,0,0,1-.26-0.22Z" transform="translate(-25.86 -44.52)"/><path class="cls-2" d="M74.49,73.24l1.81-4a0.33,0.33,0,0,1,.32-0.22h0a0.32,0.32,0,0,1,.31.22l1.81,4a0.34,0.34,0,0,1,0,.13,0.24,0.24,0,0,1-.24.24,0.28,0.28,0,0,1-.25-0.19l-0.47-1H75.4l-0.47,1a0.25,0.25,0,0,1-.24.17,0.23,0.23,0,0,1-.23-0.23A0.29,0.29,0,0,1,74.49,73.24Zm3.16-1.31-1-2.28-1,2.28h2.05Z" transform="translate(-25.86 -44.52)"/><path class="cls-2" d="M80.44,69.58H79.14a0.23,0.23,0,0,1-.24-0.23,0.24,0.24,0,0,1,.24-0.24h3.1a0.24,0.24,0,0,1,.24.24,0.23,0.23,0,0,1-.24.23H80.95v3.77a0.25,0.25,0,1,1-.51,0V69.58Z" transform="translate(-25.86 -44.52)"/><path class="cls-2" d="M83.5,73.32v-4a0.25,0.25,0,0,1,.25-0.25h2.77a0.23,0.23,0,1,1,0,.46H84v1.52h2.23a0.23,0.23,0,0,1,.23.23,0.23,0.23,0,0,1-.23.23H84v1.56h2.55a0.23,0.23,0,0,1,0,.46H83.75A0.25,0.25,0,0,1,83.5,73.32Z" transform="translate(-25.86 -44.52)"/><path class="cls-2" d="M87.85,69.37a0.25,0.25,0,0,1,.25-0.25h1.67a1.76,1.76,0,0,1,1.27.45,1.23,1.23,0,0,1,.34.88h0a1.3,1.3,0,0,1-1.19,1.29l1.11,1.43a0.27,0.27,0,0,1,.08.18,0.26,0.26,0,0,1-.25.25,0.29,0.29,0,0,1-.24-0.13l-1.26-1.63H88.36v1.51a0.25,0.25,0,1,1-.5,0v-4Zm1.87,2a1,1,0,0,0,1.15-.92h0a1,1,0,0,0-1.14-.88H88.36v1.81h1.37Z" transform="translate(-25.86 -44.52)"/><path class="cls-2" d="M95.87,69.58H94.58a0.23,0.23,0,0,1-.24-0.23,0.24,0.24,0,0,1,.24-0.24h3.1a0.24,0.24,0,0,1,.24.24,0.23,0.23,0,0,1-.24.23H96.38v3.77a0.25,0.25,0,1,1-.51,0V69.58Z" transform="translate(-25.86 -44.52)"/><path class="cls-2" d="M98.94,73.32v-4a0.25,0.25,0,0,1,.25-0.25H102a0.23,0.23,0,1,1,0,.46H99.45v1.52h2.23a0.23,0.23,0,0,1,.23.23,0.23,0.23,0,0,1-.23.23H99.45v1.56H102a0.23,0.23,0,1,1,0,.46H99.19A0.25,0.25,0,0,1,98.94,73.32Z" transform="translate(-25.86 -44.52)"/><path class="cls-2" d="M103,71.36h0A2.25,2.25,0,0,1,105.29,69a2.31,2.31,0,0,1,1.59.58,0.28,0.28,0,0,1,.1.2,0.26,0.26,0,0,1-.25.25,0.3,0.3,0,0,1-.17-0.06,1.83,1.83,0,0,0-1.28-.51,1.75,1.75,0,0,0-1.73,1.83h0a1.76,1.76,0,0,0,1.73,1.84,1.83,1.83,0,0,0,1.33-.54,0.23,0.23,0,0,1,.16-0.07,0.25,0.25,0,0,1,.24.24,0.24,0.24,0,0,1-.08.18,2.29,2.29,0,0,1-1.66.66A2.23,2.23,0,0,1,103,71.36Z" transform="translate(-25.86 -44.52)"/><path class="cls-2" d="M108.13,69.34a0.25,0.25,0,1,1,.5,0v1.76h2.58V69.34a0.25,0.25,0,1,1,.5,0v4a0.25,0.25,0,1,1-.5,0V71.57h-2.58v1.78a0.25,0.25,0,1,1-.5,0v-4Z" transform="translate(-25.86 -44.52)"/><path class="cls-2" d="M113.18,69.34a0.25,0.25,0,0,1,.25-0.25h0.07a0.31,0.31,0,0,1,.25.15l2.71,3.46V69.33a0.25,0.25,0,1,1,.49,0v4a0.23,0.23,0,0,1-.23.24h0a0.35,0.35,0,0,1-.26-0.15l-2.77-3.54v3.46a0.25,0.25,0,1,1-.49,0v-4Z" transform="translate(-25.86 -44.52)"/><path class="cls-2" d="M118.19,71.36h0a2.28,2.28,0,1,1,4.55,0h0A2.28,2.28,0,1,1,118.19,71.36Zm4,0h0a1.77,1.77,0,0,0-1.76-1.84,1.75,1.75,0,0,0-1.75,1.83h0a1.77,1.77,0,0,0,1.76,1.84A1.75,1.75,0,0,0,122.22,71.36Z" transform="translate(-25.86 -44.52)"/><path class="cls-2" d="M124,69.34a0.25,0.25,0,1,1,.5,0v3.77h2.31a0.23,0.23,0,0,1,.23.24,0.23,0.23,0,0,1-.23.23h-2.57a0.25,0.25,0,0,1-.25-0.25v-4Z" transform="translate(-25.86 -44.52)"/><path class="cls-2" d="M127.55,71.36h0a2.28,2.28,0,1,1,4.55,0h0A2.28,2.28,0,1,1,127.55,71.36Zm4,0h0a1.77,1.77,0,0,0-1.76-1.84,1.75,1.75,0,0,0-1.75,1.83h0a1.77,1.77,0,0,0,1.76,1.84A1.75,1.75,0,0,0,131.58,71.36Z" transform="translate(-25.86 -44.52)"/><path class="cls-2" d="M133.12,71.36h0A2.24,2.24,0,0,1,135.35,69a2.38,2.38,0,0,1,1.52.48,0.26,0.26,0,0,1-.15.46,0.27,0.27,0,0,1-.16-0.06,1.89,1.89,0,0,0-1.24-.41,1.74,1.74,0,0,0-1.7,1.83h0a1.72,1.72,0,0,0,1.77,1.86,2.1,2.1,0,0,0,1.29-.45V71.64h-1.2a0.23,0.23,0,0,1,0-.45h1.43a0.25,0.25,0,0,1,.25.26V72.8a0.36,0.36,0,0,1-.17.31,2.72,2.72,0,0,1-1.62.54A2.19,2.19,0,0,1,133.12,71.36Z" transform="translate(-25.86 -44.52)"/><path class="cls-2" d="M138.54,69.34a0.25,0.25,0,1,1,.5,0v4a0.25,0.25,0,1,1-.5,0v-4Z" transform="translate(-25.86 -44.52)"/><path class="cls-2" d="M140.53,73.32v-4a0.25,0.25,0,0,1,.25-0.25h2.77a0.23,0.23,0,1,1,0,.46H141v1.52h2.23a0.23,0.23,0,0,1,.23.23,0.23,0.23,0,0,1-.23.23H141v1.56h2.55a0.23,0.23,0,1,1,0,.46h-2.81A0.25,0.25,0,0,1,140.53,73.32Z" transform="translate(-25.86 -44.52)"/><path class="cls-2" d="M144.76,73a0.23,0.23,0,0,1-.1-0.19,0.24,0.24,0,0,1,.24-0.25,0.22,0.22,0,0,1,.15.06,2,2,0,0,0,1.41.53,0.86,0.86,0,0,0,1-.76h0c0-.41-0.22-0.65-1.16-0.85s-1.5-.55-1.5-1.29h0A1.32,1.32,0,0,1,146.27,69a2.28,2.28,0,0,1,1.42.44,0.26,0.26,0,0,1,.11.2,0.24,0.24,0,0,1-.24.24,0.24,0.24,0,0,1-.15,0,1.87,1.87,0,0,0-1.15-.39,0.82,0.82,0,0,0-.95.72h0c0,0.42.23,0.66,1.21,0.87S148,71.68,148,72.36h0a1.34,1.34,0,0,1-1.52,1.26A2.61,2.61,0,0,1,144.76,73Z" transform="translate(-25.86 -44.52)"/><path class="cls-2" d="M33.59,61.88v0c0,0.13,0,.25,0,0.38a15.47,15.47,0,0,0,7.73,13l0.34,0.19H41a15.48,15.48,0,1,1,3.89-30.54l-3.55,3.54s-7.59,7.44-7.73,13c0,0.13,0,.26,0,0.4" transform="translate(-25.86 -44.52)"/><path class="cls-2" d="M48.74,46.4a15.38,15.38,0,0,0-3.86-1.47l-3.55,3.54s7.59,7.44,7.73,13q0,0.2,0,.4h0c0-.13,0-0.27,0-0.4v0.8a7.74,7.74,0,0,1-15.46,0,15.47,15.47,0,0,0,7.73,13l0.34,0.19A15.48,15.48,0,0,0,48.74,46.4Z" transform="translate(-25.86 -44.52)"/><path class="cls-2" d="M38.78,69.18a7.74,7.74,0,0,1-5.17-6.91,15.47,15.47,0,0,0,7.73,13l0.34,0.19a15.52,15.52,0,0,0,2.79-.32A15.54,15.54,0,0,1,38.78,69.18Z" transform="translate(-25.86 -44.52)"/><path class="cls-2" d="M44.68,48.47l2.72-2.71a15.34,15.34,0,0,0-2.51-.83l-3.55,3.54S42,49.16,43,50.27C44,49.16,44.68,48.47,44.68,48.47Z" transform="translate(-25.86 -44.52)"/></g></svg>