<svg id="Layer_1" data-name="Layer 1" xmlns="http://www.w3.org/2000/svg" width="33.03" height="33.03" viewBox="0 0 33.03 33.03"><defs><style>.cls-1{fill:#00bfd6;}.cls-2{fill:#fff;}</style></defs><title>instagram</title><circle class="cls-1" cx="16.52" cy="16.52" r="16.52"/><path class="cls-2" d="M32.12,14.48H17.18a2.87,2.87,0,0,0-2.87,2.87V32.29a2.87,2.87,0,0,0,2.87,2.87H32.12A2.87,2.87,0,0,0,35,32.29V17.35A2.87,2.87,0,0,0,32.12,14.48ZM24.65,20.8a4,4,0,1,1-4,4A4,4,0,0,1,24.65,20.8Zm8,11.49a0.57,0.57,0,0,1-.57.57H17.18a0.57,0.57,0,0,1-.57-0.57V23.1h2a6.32,6.32,0,1,0,12.15,0h2v9.19Zm0-12.06a0.57,0.57,0,0,1-.57.57H29.24a0.57,0.57,0,0,1-.57-0.57V17.35a0.57,0.57,0,0,1,.57-0.57h2.87a0.57,0.57,0,0,1,.57.57v2.87Z" transform="translate(-8.48 -8.48)"/></svg>