<svg id="Layer_1" data-name="Layer 1" xmlns="http://www.w3.org/2000/svg" width="88.78" height="74.32" viewBox="0 0 88.78 74.32"><defs><style>.cls-1{opacity:0.45;}.cls-2{fill:#010101;}</style></defs><title>pittsburgh-foundation</title><g class="cls-1"><path class="cls-2" d="M49.46,67.52v1H46.61v7.58h-1V68.49H42.72v-1h6.75Z" transform="translate(-42.61 -22.84)"/><path class="cls-2" d="M50.41,76.06V67.52h1v3.76H56V67.52h1v8.54H56V72.24H51.43v3.82h-1Z" transform="translate(-42.61 -22.84)"/><path class="cls-2" d="M58.36,76.06V67.52h5.26v1H59.37v2.79h3.77v1H59.37V75.1h4.42v1H58.36Z" transform="translate(-42.61 -22.84)"/><path class="cls-2" d="M68.48,76.06V67.52h2a3.8,3.8,0,0,1,.92.13,3.18,3.18,0,0,1,.95.41,2.47,2.47,0,0,1,.73.72,1.87,1.87,0,0,1,.29,1.06,2.37,2.37,0,0,1-.66,1.76,2.6,2.6,0,0,1-1.9.65H69.5v3.81h-1Zm1-4.78h1.06a2.38,2.38,0,0,0,.88-0.14A1.64,1.64,0,0,0,72,70.79a1.18,1.18,0,0,0,.29-0.46,1.53,1.53,0,0,0,.09-0.49,1.05,1.05,0,0,0-.14-0.52,1.49,1.49,0,0,0-.38-0.44,1.81,1.81,0,0,0-.57-0.3,2.27,2.27,0,0,0-.71-0.11H69.5v2.81Z" transform="translate(-42.61 -22.84)"/><path class="cls-2" d="M74.46,67.52h1v8.54h-1V67.52Z" transform="translate(-42.61 -22.84)"/><path class="cls-2" d="M83.39,67.52v1H80.54v7.58h-1V68.49H76.64v-1h6.75Z" transform="translate(-42.61 -22.84)"/><path class="cls-2" d="M89.65,67.52v1H86.8v7.58h-1V68.49H82.9v-1h6.75Z" transform="translate(-42.61 -22.84)"/><path class="cls-2" d="M94.88,68.36l-0.29.37-0.29.37a2.29,2.29,0,0,0-.26-0.21,2.39,2.39,0,0,0-.36-0.21,2.66,2.66,0,0,0-.45-0.16,2.05,2.05,0,0,0-.53-0.07,1.3,1.3,0,0,0-1,.4,1.42,1.42,0,0,0-.34,1,1,1,0,0,0,.12.51,1.08,1.08,0,0,0,.31.35,1.92,1.92,0,0,0,.43.24l0.49,0.18c0.27,0.1.56,0.21,0.87,0.35a3.86,3.86,0,0,1,.86.51,2.66,2.66,0,0,1,.66.76,2.12,2.12,0,0,1,.26,1.09,2.34,2.34,0,0,1-.2,1,2.25,2.25,0,0,1-.55.75,2.42,2.42,0,0,1-.81.48,2.87,2.87,0,0,1-1,.16,3.16,3.16,0,0,1-.9-0.13,3.95,3.95,0,0,1-1.46-.77A2.27,2.27,0,0,1,90,74.77l0.64-.63a4.49,4.49,0,0,0,.38.36,3.79,3.79,0,0,0,.48.35,2.49,2.49,0,0,0,.56.26,2.16,2.16,0,0,0,.66.1,2,2,0,0,0,.61-0.09,1.6,1.6,0,0,0,.52-0.27,1.28,1.28,0,0,0,.36-0.44,1.38,1.38,0,0,0,.13-0.62A1.24,1.24,0,0,0,94.06,73a2,2,0,0,0-.58-0.51,3.75,3.75,0,0,0-.73-0.32l-0.66-.23-0.53-.23a2.42,2.42,0,0,1-.58-0.4,2.24,2.24,0,0,1-.47-0.62,2,2,0,0,1-.21-0.91,2.51,2.51,0,0,1,.11-0.81,2,2,0,0,1,.4-0.73,2.06,2.06,0,0,1,.74-0.54,2.77,2.77,0,0,1,1.13-.21,3.24,3.24,0,0,1,1,.17A3.62,3.62,0,0,1,94.88,68.36Z" transform="translate(-42.61 -22.84)"/><path class="cls-2" d="M96.49,76.06V67.52h2.23a4.49,4.49,0,0,1,1.09.12,2.33,2.33,0,0,1,.84.38,1.72,1.72,0,0,1,.54.66,2.22,2.22,0,0,1,.2,1A2.46,2.46,0,0,1,101,71a1.82,1.82,0,0,1-1.09.78,2.56,2.56,0,0,1,.66.24,2,2,0,0,1,.56.44,2.21,2.21,0,0,1,.38.62,2.06,2.06,0,0,1,.15.79,1.92,1.92,0,0,1-.23,1,2.14,2.14,0,0,1-.62.68,2.83,2.83,0,0,1-.89.41,3.77,3.77,0,0,1-1,.14H96.49Zm1-7.58v2.79h1.32a1.58,1.58,0,0,0,1.14-.4,1.4,1.4,0,0,0,.42-1.06,1.16,1.16,0,0,0-.44-1,2,2,0,0,0-1.15-.31H97.51Zm0,3.76V75.1h1.35A2.79,2.79,0,0,0,99.57,75a1.74,1.74,0,0,0,.58-0.26,1.35,1.35,0,0,0,.4-0.43,1.21,1.21,0,0,0,.15-0.61,1.24,1.24,0,0,0-.17-0.66,1.41,1.41,0,0,0-.45-0.46,2,2,0,0,0-.64-0.26,3.29,3.29,0,0,0-.75-0.09H97.51Z" transform="translate(-42.61 -22.84)"/><path class="cls-2" d="M105.83,76.16a3.92,3.92,0,0,1-1.22-.18,2.79,2.79,0,0,1-1-.54,2.43,2.43,0,0,1-.65-0.9,3.08,3.08,0,0,1-.23-1.23V67.52h1v5.75a2.07,2.07,0,0,0,.15.82,1.65,1.65,0,0,0,.43.6,1.9,1.9,0,0,0,.65.37,2.77,2.77,0,0,0,1.66,0,1.91,1.91,0,0,0,.65-0.37,1.72,1.72,0,0,0,.43-0.6,2,2,0,0,0,.16-0.82V67.52h1V73.3a3,3,0,0,1-.24,1.23,2.51,2.51,0,0,1-.65.9,2.78,2.78,0,0,1-1,.54A3.93,3.93,0,0,1,105.83,76.16Z" transform="translate(-42.61 -22.84)"/><path class="cls-2" d="M110.24,76.06V67.52h2a3.8,3.8,0,0,1,.92.13,3.18,3.18,0,0,1,.95.41,2.48,2.48,0,0,1,.73.72,1.88,1.88,0,0,1,.29,1.06,2.5,2.5,0,0,1-.46,1.53,2.18,2.18,0,0,1-1.34.81l1.83,3.88h-1.1l-1.79-3.81h-1v3.81h-1Zm1-4.78h1.06a2.38,2.38,0,0,0,.88-0.14,1.64,1.64,0,0,0,.56-0.35,1.18,1.18,0,0,0,.29-0.46,1.53,1.53,0,0,0,.09-0.49,1,1,0,0,0-.14-0.52,1.49,1.49,0,0,0-.38-0.44,1.81,1.81,0,0,0-.57-0.3,2.27,2.27,0,0,0-.71-0.11h-1.07v2.81Z" transform="translate(-42.61 -22.84)"/><path class="cls-2" d="M120.2,73.37v-1h1.68a0.53,0.53,0,0,1,.47.18,1,1,0,0,1,.12.55v2.42a4.83,4.83,0,0,1-1,.44,4.09,4.09,0,0,1-1.18.16,4.23,4.23,0,0,1-1.7-.34,4.37,4.37,0,0,1-2.32-2.32,4.24,4.24,0,0,1-.34-1.7,4.29,4.29,0,0,1,.34-1.7,4.39,4.39,0,0,1,.93-1.39,4.49,4.49,0,0,1,1.38-.94,4.18,4.18,0,0,1,1.7-.35,4.26,4.26,0,0,1,1.18.16,4.58,4.58,0,0,1,1.06.45l-0.28.41-0.28.41a3.62,3.62,0,0,0-.79-0.34,3.11,3.11,0,0,0-.88-0.12,3.16,3.16,0,0,0-1.3.27,3.4,3.4,0,0,0-1.06.74,3.5,3.5,0,0,0-.72,1.09,3.41,3.41,0,0,0,.72,3.72,3.5,3.5,0,0,0,1.06.73,3.16,3.16,0,0,0,1.3.27,3.36,3.36,0,0,0,1.21-.22V73.73a0.66,0.66,0,0,0,0-.29,0.26,0.26,0,0,0-.24-0.08h-1Z" transform="translate(-42.61 -22.84)"/><path class="cls-2" d="M123.8,76.06V67.52h1v3.76h4.61V67.52h1v8.54h-1V72.24h-4.61v3.82h-1Z" transform="translate(-42.61 -22.84)"/><path class="cls-2" d="M43.11,88.21V80h5v0.93H44.08v2.68H47.7v0.92H44.08v3.66h-1Z" transform="translate(-42.61 -22.84)"/><path class="cls-2" d="M50.37,84.12a4.08,4.08,0,0,1,.33-1.62,4.23,4.23,0,0,1,2.23-2.25,4.11,4.11,0,0,1,3.25,0,4.27,4.27,0,0,1,2.25,2.25,4.12,4.12,0,0,1,0,3.25,4.26,4.26,0,0,1-.91,1.33,4.33,4.33,0,0,1-1.34.9,4.19,4.19,0,0,1-3.25,0,4.19,4.19,0,0,1-2.23-2.22A4.07,4.07,0,0,1,50.37,84.12Zm1,0a3.22,3.22,0,0,0,.94,2.3,3.32,3.32,0,0,0,1,.7,3.17,3.17,0,0,0,2.51,0,3.32,3.32,0,0,0,1-.7,3.3,3.3,0,0,0,.69-3.57,3.28,3.28,0,0,0-1.72-1.74,3.17,3.17,0,0,0-2.51,0,3.28,3.28,0,0,0-1.72,1.74A3.21,3.21,0,0,0,51.34,84.12Z" transform="translate(-42.61 -22.84)"/><path class="cls-2" d="M64.68,88.31a3.8,3.8,0,0,1-1.17-.17,2.74,2.74,0,0,1-.94-0.52A2.36,2.36,0,0,1,62,86.75a3,3,0,0,1-.22-1.18V80h1v5.52a2,2,0,0,0,.15.79,1.6,1.6,0,0,0,.41.58,1.79,1.79,0,0,0,.63.36,2.66,2.66,0,0,0,1.59,0,1.79,1.79,0,0,0,.63-0.36,1.66,1.66,0,0,0,.42-0.58,1.94,1.94,0,0,0,.15-0.79V80h1v5.55a2.9,2.9,0,0,1-.23,1.18,2.43,2.43,0,0,1-.63.86,2.75,2.75,0,0,1-.94.52A3.81,3.81,0,0,1,64.68,88.31Z" transform="translate(-42.61 -22.84)"/><path class="cls-2" d="M78.39,80v8.57l-3-3.19-3-3.18-0.11-.15-0.11-.15c0,0.06,0,.13,0,0.19s0,0.13,0,.19v5.93h-1V79.64l3,3.25,3,3.25,0.11,0.15,0.11,0.15c0-.06,0-0.12,0-0.19s0-.12,0-0.19V80h1Z" transform="translate(-42.61 -22.84)"/><path class="cls-2" d="M81.65,80h1.91a4.42,4.42,0,0,1,1.59.29,3.87,3.87,0,0,1,1.31.82,4,4,0,0,1,.89,1.29,4.22,4.22,0,0,1,.33,1.7,4.52,4.52,0,0,1-.24,1.42,3.66,3.66,0,0,1-.78,1.32,4.09,4.09,0,0,1-1.4,1,5.19,5.19,0,0,1-2.1.38H81.65V80Zm1,0.93v6.33h0.82a3.71,3.71,0,0,0,1.29-.22,3,3,0,0,0,1-.64,3,3,0,0,0,.69-1,3.24,3.24,0,0,0,.25-1.3,3.3,3.3,0,0,0-.25-1.31,3,3,0,0,0-.69-1,3.05,3.05,0,0,0-1-.64,3.71,3.71,0,0,0-1.29-.22H82.62Z" transform="translate(-42.61 -22.84)"/><path class="cls-2" d="M96.79,88.21h-1l-0.68-1.62L94.45,85H91.87l-0.69,1.62L90.5,88.21h-1l1.82-4.29,1.82-4.28L95,83.93Zm-3.52-6-0.11-.39a7.84,7.84,0,0,1-.41,1.14q-0.25.55-.48,1.11h1.78l-0.39-.93Z" transform="translate(-42.61 -22.84)"/><path class="cls-2" d="M104.66,80v0.93h-2.74v7.27h-1V80.94H98.18V80h6.48Z" transform="translate(-42.61 -22.84)"/><path class="cls-2" d="M107.93,80h1v8.2h-1V80Z" transform="translate(-42.61 -22.84)"/><path class="cls-2" d="M112.16,84.12a4.08,4.08,0,0,1,.33-1.62,4.23,4.23,0,0,1,2.23-2.25,4.1,4.1,0,0,1,3.25,0,4.27,4.27,0,0,1,2.25,2.25,4.11,4.11,0,0,1,0,3.25,4.23,4.23,0,0,1-.91,1.33A4.3,4.3,0,0,1,118,88a4.18,4.18,0,0,1-3.25,0,4.19,4.19,0,0,1-2.23-2.22A4.07,4.07,0,0,1,112.16,84.12Zm1,0a3.23,3.23,0,0,0,.94,2.3,3.32,3.32,0,0,0,1,.7,3.16,3.16,0,0,0,2.51,0,3.34,3.34,0,0,0,1-.7,3.3,3.3,0,0,0,.69-3.57,3.27,3.27,0,0,0-1.72-1.74,3.16,3.16,0,0,0-2.51,0,3.28,3.28,0,0,0-1,.7,3.24,3.24,0,0,0-.69,1A3.19,3.19,0,0,0,113.13,84.12Z" transform="translate(-42.61 -22.84)"/><path class="cls-2" d="M130.53,80v8.57l-3-3.19-3-3.18-0.11-.15-0.11-.15c0,0.06,0,.13,0,0.19s0,0.13,0,.19v5.93h-1V79.64l3,3.25,3,3.25,0.11,0.15,0.11,0.15c0-.06,0-0.12,0-0.19s0-.12,0-0.19V80h1Z" transform="translate(-42.61 -22.84)"/><polygon class="cls-2" points="47.65 21.02 45.34 21.88 45.34 7.45 48.05 3.73 50.38 5.96 51.46 5.96 53.8 3.73 56.51 7.45 56.51 19.73 54.19 19.73 54.19 8.21 53.48 7.24 52.39 8.28 49.45 8.28 48.36 7.24 47.65 8.21 47.65 21.02"/><polygon class="cls-2" points="39.03 26.01 36.71 28.21 36.71 13.27 40.71 7.43 44.6 12.97 42.7 14.3 40.74 11.5 39.03 13.99 39.03 26.01"/><polygon class="cls-2" points="33.83 28.74 31.52 29.08 31.52 3.82 34.62 0 43.01 0 45.86 3.5 44.38 5.28 41.91 2.32 35.72 2.32 33.83 4.64 33.83 28.74"/><path class="cls-2" d="M86.52,63.6c-3.32,0-6.15-1.22-8.5-1.22a12.93,12.93,0,0,0-3.89.54V60.48A15.61,15.61,0,0,1,78,60.06c3.14,0,5.77,1.22,8.5,1.22s6.58-1.22,8.59-1.22a14.88,14.88,0,0,1,4,.49V63a13,13,0,0,0-4-.59C92.77,62.38,89.85,63.6,86.52,63.6Z" transform="translate(-42.61 -22.84)"/><path class="cls-2" d="M86.52,59.76c-3.32,0-6.15-1.21-8.5-1.21a12.81,12.81,0,0,0-3.89.54V56.65A15.7,15.7,0,0,1,78,56.23c3.14,0,5.77,1.21,8.5,1.21s6.58-1.21,8.59-1.21a14.89,14.89,0,0,1,4,.49v2.42a13.2,13.2,0,0,0-4-.59C92.77,58.54,89.85,59.76,86.52,59.76Z" transform="translate(-42.61 -22.84)"/><path class="cls-2" d="M99.12,52.88V43.55a24.52,24.52,0,0,0-19.78,8.92c-0.43,0-.87-0.07-1.32-0.07a15.62,15.62,0,0,0-3.89.42v2.43A13,13,0,0,1,78,54.71c2.35,0,5.18,1.21,8.5,1.21s6.25-1.21,8.59-1.21a13.11,13.11,0,0,1,4,.59V52.88h0Zm-7-6.18v6.1c-0.84.16-1.73,0.34-2.61,0.49V47.63A20.38,20.38,0,0,1,92.11,46.7ZM82.05,52.92a24.05,24.05,0,0,1,5.13-4.1v4.76l-0.66,0A21.56,21.56,0,0,1,82.05,52.92Zm12.37-.49V46.18a23.16,23.16,0,0,1,2.38-.27v6.55c-0.49,0-1-.08-1.69-0.08A6.82,6.82,0,0,0,94.42,52.43Z" transform="translate(-42.61 -22.84)"/><path class="cls-2" d="M46.67,90.19v0.44h-1.8v4.7H44.42v-4.7H42.61V90.19h4.06Z" transform="translate(-42.61 -22.84)"/><path class="cls-2" d="M47.53,89.82H48V93l0,0.33a1.23,1.23,0,0,1,.47-0.55,1.4,1.4,0,0,1,.73-0.22,0.92,0.92,0,0,1,.66.23,0.82,0.82,0,0,1,.26.59v2H49.63V93.51a0.62,0.62,0,0,0-.16-0.38A0.6,0.6,0,0,0,49,93a1.12,1.12,0,0,0-.4.07,1.15,1.15,0,0,0-.33.2,0.94,0.94,0,0,0-.23.3,0.87,0.87,0,0,0-.08.38v1.42H47.53v-5.5Z" transform="translate(-42.61 -22.84)"/><path class="cls-2" d="M53.79,93.64l-2.13.81a0.93,0.93,0,0,0,.35.35,1,1,0,0,0,.51.13,0.94,0.94,0,0,0,.37-0.07,1,1,0,0,0,.3-0.2l0.14,0.17L53.46,95a1.43,1.43,0,0,1-.43.29,1.29,1.29,0,0,1-.52.1,1.4,1.4,0,0,1-.56-0.11A1.52,1.52,0,0,1,51.48,95a1.44,1.44,0,0,1-.31-0.46,1.43,1.43,0,0,1,0-1.12,1.41,1.41,0,0,1,.31-0.46,1.49,1.49,0,0,1,.46-0.31,1.4,1.4,0,0,1,.56-0.11,1.11,1.11,0,0,1,.43.08,1.27,1.27,0,0,1,.37.23,1.58,1.58,0,0,1,.29.36A1.82,1.82,0,0,1,53.79,93.64ZM52.51,93a1,1,0,0,0-.63.22,0.9,0.9,0,0,0-.33.55,1,1,0,0,0,0,.15s0,0.1,0,.15l0.84-.32,0.84-.32a0.89,0.89,0,0,0-.29-0.31A0.72,0.72,0,0,0,52.51,93Z" transform="translate(-42.61 -22.84)"/><path class="cls-2" d="M59.63,93.95a1.39,1.39,0,0,1-.11.56,1.53,1.53,0,0,1-.31.46,1.41,1.41,0,0,1-.46.31,1.45,1.45,0,0,1-.58.11,1.31,1.31,0,0,1-.4-0.06,1.52,1.52,0,0,1-.32-0.14A1,1,0,0,1,57.23,95a0.41,0.41,0,0,1-.11-0.16l0,0.11,0,0.11v2.07H56.72V92.57H57.1c0,0.08,0,.17,0,0.25s0,0.17,0,.25a0.44,0.44,0,0,1,.11-0.17,1.29,1.29,0,0,1,.23-0.18,1.35,1.35,0,0,1,.32-0.15,1.22,1.22,0,0,1,.38-0.06,1.46,1.46,0,0,1,1,.42,1.5,1.5,0,0,1,.31.45A1.38,1.38,0,0,1,59.63,93.95Zm-0.46,0a1,1,0,0,0-.07-0.39,1,1,0,0,0-.21-0.31A1,1,0,0,0,58.58,93a1,1,0,0,0-.4-0.08,1,1,0,0,0-.4.08,1,1,0,0,0-.6.91,1,1,0,0,0,.08.39,1,1,0,0,0,.21.32,1,1,0,0,0,.31.21,1,1,0,0,0,.4.08,1,1,0,0,0,.4-0.08,1,1,0,0,0,.32-0.21,1,1,0,0,0,.21-0.32A1,1,0,0,0,59.17,93.95Z" transform="translate(-42.61 -22.84)"/><path class="cls-2" d="M60.53,93.95a1.4,1.4,0,0,1,.11-0.56A1.42,1.42,0,0,1,61,92.93a1.49,1.49,0,0,1,.46-0.31A1.41,1.41,0,0,1,62,92.51a1.45,1.45,0,0,1,.58.11,1.48,1.48,0,0,1,.47.31,1.42,1.42,0,0,1,.43,1,1.4,1.4,0,0,1-.11.56A1.44,1.44,0,0,1,63,95a1.51,1.51,0,0,1-.47.31,1.45,1.45,0,0,1-.58.11,1.41,1.41,0,0,1-.57-0.11A1.53,1.53,0,0,1,61,95a1.45,1.45,0,0,1-.31-0.46A1.39,1.39,0,0,1,60.53,93.95ZM61,94a1,1,0,0,0,.08.39,1,1,0,0,0,.21.31,1.09,1.09,0,0,0,.32.21,1,1,0,0,0,.77,0,1.09,1.09,0,0,0,.32-0.21,1,1,0,0,0,.21-0.31A1,1,0,0,0,63,94,1,1,0,0,0,62.36,93a1,1,0,0,0-.77,0,1,1,0,0,0-.53.53A1,1,0,0,0,61,94Z" transform="translate(-42.61 -22.84)"/><path class="cls-2" d="M66.26,93.06l-0.12-.24L66,92.57h0.46L67,93.63c0.18,0.35.34,0.71,0.48,1.06,0.14-.36.3-0.71,0.48-1.06s0.35-.7.52-1.06H69L68.23,94l-0.73,1.46-0.5-1-0.5-1-0.5,1-0.5,1L64.76,94,64,92.57h0.45L65,93.63c0.18,0.35.34,0.71,0.48,1.06q0.17-.42.37-0.82Z" transform="translate(-42.61 -22.84)"/><path class="cls-2" d="M72.17,93.64L70,94.45a0.93,0.93,0,0,0,.35.35,1,1,0,0,0,.51.13,0.94,0.94,0,0,0,.37-0.07,1,1,0,0,0,.3-0.2l0.14,0.17L71.84,95a1.43,1.43,0,0,1-.43.29,1.3,1.3,0,0,1-.52.1,1.41,1.41,0,0,1-.57-0.11A1.53,1.53,0,0,1,69.87,95a1.44,1.44,0,0,1-.31-0.46,1.44,1.44,0,0,1,0-1.12,1.42,1.42,0,0,1,.31-0.46,1.49,1.49,0,0,1,.46-0.31,1.41,1.41,0,0,1,.57-0.11,1.11,1.11,0,0,1,.43.08,1.29,1.29,0,0,1,.37.23,1.59,1.59,0,0,1,.29.36A1.77,1.77,0,0,1,72.17,93.64ZM70.9,93a1,1,0,0,0-.64.22,0.9,0.9,0,0,0-.33.55,1.19,1.19,0,0,0,0,.15s0,0.1,0,.15l0.84-.32,0.84-.32a0.9,0.9,0,0,0-.29-0.31A0.72,0.72,0,0,0,70.9,93Z" transform="translate(-42.61 -22.84)"/><path class="cls-2" d="M74.86,93a1.21,1.21,0,0,0-.42.07,1.11,1.11,0,0,0-.33.2,0.91,0.91,0,0,0-.22.3,0.92,0.92,0,0,0-.08.38v1.42H73.35V92.57h0.41v0.16c0,0.1,0,.19,0,0.27v0.28A1.28,1.28,0,0,1,74,93a1.55,1.55,0,0,1,.28-0.24,1.29,1.29,0,0,1,.31-0.15,1,1,0,0,1,.29-0.05Z" transform="translate(-42.61 -22.84)"/><path class="cls-2" d="M78.08,90.78h0.45v1.76h0.79V93H78.54v2.33H78.08V93H77.46V92.54h0.63V90.78Z" transform="translate(-42.61 -22.84)"/><path class="cls-2" d="M79.83,93.95a1.39,1.39,0,0,1,.11-0.56,1.43,1.43,0,0,1,.31-0.46,1.49,1.49,0,0,1,.46-0.31,1.4,1.4,0,0,1,.56-0.11,1.45,1.45,0,0,1,.58.11,1.49,1.49,0,0,1,.47.31,1.43,1.43,0,0,1,.31.46,1.45,1.45,0,0,1,0,1.12,1.45,1.45,0,0,1-.31.46,1.52,1.52,0,0,1-.47.31,1.45,1.45,0,0,1-.58.11,1.4,1.4,0,0,1-.56-0.11A1.53,1.53,0,0,1,80.25,95a1.46,1.46,0,0,1-.31-0.46A1.39,1.39,0,0,1,79.83,93.95Zm0.45,0a1,1,0,0,0,.29.7,1.09,1.09,0,0,0,.32.21,1,1,0,0,0,.77,0A1.08,1.08,0,0,0,82,94.65a1,1,0,0,0,.29-0.7,1,1,0,0,0-.08-0.39A1,1,0,0,0,82,93.24,1,1,0,0,0,81.66,93a1,1,0,0,0-.77,0,1,1,0,0,0-.32.21A1,1,0,0,0,80.28,94Z" transform="translate(-42.61 -22.84)"/><path class="cls-2" d="M85.54,93.95a1.38,1.38,0,0,1,.11-0.55A1.54,1.54,0,0,1,86,92.93a1.41,1.41,0,0,1,.46-0.31A1.45,1.45,0,0,1,87,92.51a1.2,1.2,0,0,1,.39.06,1.51,1.51,0,0,1,.32.14,1.13,1.13,0,0,1,.23.18,0.46,0.46,0,0,1,.11.17l0-.14,0-.15V89.82h0.45v5.5H88V94.86a0.46,0.46,0,0,1-.11.16,1,1,0,0,1-.22.17,1.44,1.44,0,0,1-.72.19,1.45,1.45,0,0,1-.58-0.11A1.42,1.42,0,0,1,86,95a1.53,1.53,0,0,1-.31-0.46A1.37,1.37,0,0,1,85.54,93.95Zm0.46,0a1,1,0,0,0,.07.39,1,1,0,0,0,.21.31,1,1,0,0,0,.31.21,1.05,1.05,0,0,0,.4.08,1,1,0,0,0,.71-0.29,1,1,0,0,0,.21-0.31,1,1,0,0,0,0-.78A0.95,0.95,0,0,0,87.39,93,1,1,0,0,0,87,93a1,1,0,0,0-.4.08,1,1,0,0,0-.31.21,0.92,0.92,0,0,0-.21.32A1,1,0,0,0,86,93.95Z" transform="translate(-42.61 -22.84)"/><path class="cls-2" d="M89.32,93.95a1.4,1.4,0,0,1,.11-0.56,1.43,1.43,0,0,1,.31-0.46,1.51,1.51,0,0,1,.46-0.31,1.4,1.4,0,0,1,.57-0.11,1.46,1.46,0,0,1,.58.11,1.49,1.49,0,0,1,.47.31,1.43,1.43,0,0,1,.31.46,1.44,1.44,0,0,1,0,1.12,1.45,1.45,0,0,1-.31.46,1.53,1.53,0,0,1-.47.31,1.46,1.46,0,0,1-.58.11,1.4,1.4,0,0,1-.57-0.11A1.54,1.54,0,0,1,89.75,95a1.46,1.46,0,0,1-.31-0.46A1.39,1.39,0,0,1,89.32,93.95Zm0.45,0a1,1,0,0,0,.29.7,1.1,1.1,0,0,0,.32.21,1,1,0,0,0,.77,0,1.06,1.06,0,0,0,.32-0.21,1,1,0,0,0,.21-0.31A1,1,0,0,0,91.76,94a1,1,0,0,0-.08-0.39A1,1,0,0,0,91.15,93a1,1,0,0,0-.77,0,1,1,0,0,0-.32.21A1,1,0,0,0,89.78,94Z" transform="translate(-42.61 -22.84)"/><path class="cls-2" d="M97.55,92.57h0.37v3.1a1.59,1.59,0,0,1-.11.6,1.43,1.43,0,0,1-.3.47,1.39,1.39,0,0,1-.45.31,1.42,1.42,0,0,1-.55.11A1.78,1.78,0,0,1,95.87,97a1.91,1.91,0,0,1-.52-0.31l0.16-.18,0.15-.18a1.25,1.25,0,0,0,.37.24,1.12,1.12,0,0,0,.45.1,1,1,0,0,0,.39-0.08,1,1,0,0,0,.31-0.22A1.13,1.13,0,0,0,97.4,96a1.16,1.16,0,0,0,.08-0.43V95.11l0-.12,0-.12a0.58,0.58,0,0,1-.13.17,1.26,1.26,0,0,1-.23.17,1.34,1.34,0,0,1-.31.12,1.42,1.42,0,0,1-.38,0,1.44,1.44,0,0,1-.58-0.11A1.41,1.41,0,0,1,95.44,95a1.47,1.47,0,0,1-.31-0.45A1.34,1.34,0,0,1,95,94a1.36,1.36,0,0,1,.11-0.55,1.53,1.53,0,0,1,.31-0.46,1.49,1.49,0,0,1,.46-0.32,1.42,1.42,0,0,1,.58-0.12,1.2,1.2,0,0,1,.39.06,1.42,1.42,0,0,1,.32.15,1.35,1.35,0,0,1,.23.18,0.49,0.49,0,0,1,.11.17,2.31,2.31,0,0,1,0-.24C97.54,92.74,97.55,92.66,97.55,92.57Zm-2.08,1.37a1,1,0,0,0,.08.39,1,1,0,0,0,.52.52,1.07,1.07,0,0,0,.79,0,1.06,1.06,0,0,0,.32-0.21,1,1,0,0,0,.21-0.31,1,1,0,0,0,0-.78,1,1,0,0,0-.21-0.32A1,1,0,0,0,96.48,93a1,1,0,0,0-.4.08,1,1,0,0,0-.31.21A1,1,0,0,0,95.48,93.95Z" transform="translate(-42.61 -22.84)"/><path class="cls-2" d="M100.68,93a1.2,1.2,0,0,0-.42.07,1.08,1.08,0,0,0-.33.2,0.88,0.88,0,0,0-.22.3,0.91,0.91,0,0,0-.08.38v1.42H99.17V92.57h0.41v0.16c0,0.1,0,.19,0,0.27s0,0.18,0,.28A1.27,1.27,0,0,1,99.83,93a1.5,1.5,0,0,1,.28-0.24,1.28,1.28,0,0,1,.31-0.15,0.94,0.94,0,0,1,.29-0.05Z" transform="translate(-42.61 -22.84)"/><path class="cls-2" d="M104.1,93.64l-2.14.81a0.94,0.94,0,0,0,.35.35,1,1,0,0,0,.51.13,0.94,0.94,0,0,0,.37-0.07,1,1,0,0,0,.3-0.2l0.14,0.17L103.77,95a1.44,1.44,0,0,1-.43.29,1.29,1.29,0,0,1-.52.1,1.41,1.41,0,0,1-.57-0.11A1.5,1.5,0,0,1,101.8,95a1.44,1.44,0,0,1-.31-0.46,1.43,1.43,0,0,1,0-1.12,1.42,1.42,0,0,1,.31-0.46,1.46,1.46,0,0,1,.46-0.31,1.41,1.41,0,0,1,.57-0.11,1.1,1.1,0,0,1,.43.08,1.3,1.3,0,0,1,.37.23,1.56,1.56,0,0,1,.29.36A1.82,1.82,0,0,1,104.1,93.64ZM102.82,93a1,1,0,0,0-.63.22,0.91,0.91,0,0,0-.33.55,1.07,1.07,0,0,0,0,.15s0,0.1,0,.15l0.84-.32,0.84-.32a0.89,0.89,0,0,0-.29-0.31A0.72,0.72,0,0,0,102.82,93Z" transform="translate(-42.61 -22.84)"/><path class="cls-2" d="M104.91,94A1.35,1.35,0,0,1,105,93.4a1.47,1.47,0,0,1,.77-0.77,1.42,1.42,0,0,1,.58-0.12,1.2,1.2,0,0,1,.39.06,1.37,1.37,0,0,1,.32.15,1.24,1.24,0,0,1,.23.18,0.46,0.46,0,0,1,.11.17c0-.08,0-0.16,0-0.24s0-.17,0-0.25h0.37v2.75h-0.4V94.86a0.45,0.45,0,0,1-.11.16,1,1,0,0,1-.22.17,1.41,1.41,0,0,1-.32.13,1.39,1.39,0,0,1-.4.06,1.45,1.45,0,0,1-.58-0.11,1.48,1.48,0,0,1-.46-0.31,1.46,1.46,0,0,1-.31-0.46A1.36,1.36,0,0,1,104.91,94Zm0.46,0a1,1,0,0,0,.08.39,1,1,0,0,0,1.63.31,1,1,0,0,0,.21-0.31,1,1,0,0,0,0-.78,0.95,0.95,0,0,0-.52-0.52,1.05,1.05,0,0,0-.79,0,1,1,0,0,0-.31.21,1,1,0,0,0-.21.32A1,1,0,0,0,105.37,93.95Z" transform="translate(-42.61 -22.84)"/><path class="cls-2" d="M109.44,90.78h0.45v1.76h0.78V93H109.9v2.33h-0.45V93h-0.62V92.54h0.62V90.78Z" transform="translate(-42.61 -22.84)"/><path class="cls-2" d="M113.72,90.78h0.46v1.76H115V93h-0.79v2.33h-0.46V93H113.1V92.54h0.62V90.78Z" transform="translate(-42.61 -22.84)"/><path class="cls-2" d="M115.88,89.82h0.46V93l0,0.33a1.23,1.23,0,0,1,.47-0.55,1.4,1.4,0,0,1,.73-0.22,0.91,0.91,0,0,1,.66.23,0.82,0.82,0,0,1,.26.59v2H118V93.51a0.62,0.62,0,0,0-.16-0.38,0.6,0.6,0,0,0-.44-0.17,1.12,1.12,0,0,0-.4.07,1.13,1.13,0,0,0-.33.2,0.94,0.94,0,0,0-.23.3,0.87,0.87,0,0,0-.08.38v1.42h-0.46v-5.5Z" transform="translate(-42.61 -22.84)"/><path class="cls-2" d="M119.55,91.55a0.3,0.3,0,0,1,.1-0.22,0.31,0.31,0,0,1,.22-0.09,0.29,0.29,0,0,1,.21.09,0.3,0.3,0,0,1,.1.22,0.28,0.28,0,0,1-.1.22,0.3,0.3,0,0,1-.21.08,0.32,0.32,0,0,1-.22-0.08A0.29,0.29,0,0,1,119.55,91.55Zm0.54,3.77h-0.46V92.57h0.46v2.75Z" transform="translate(-42.61 -22.84)"/><path class="cls-2" d="M121.42,92.57h0.41v0.16c0,0.1,0,.19,0,0.27s0,0.18,0,.28a1.21,1.21,0,0,1,.47-0.56,1.31,1.31,0,0,1,.73-0.21,0.91,0.91,0,0,1,.66.23,0.82,0.82,0,0,1,.26.59v2h-0.45V93.51a0.62,0.62,0,0,0-.16-0.38,0.6,0.6,0,0,0-.44-0.17,1.13,1.13,0,0,0-.4.07,1.14,1.14,0,0,0-.33.2,0.93,0.93,0,0,0-.23.3,0.86,0.86,0,0,0-.08.38v1.42h-0.46V92.57Z" transform="translate(-42.61 -22.84)"/><path class="cls-2" d="M127.46,92.57h0.37v3.1a1.57,1.57,0,0,1-.11.6,1.42,1.42,0,0,1-.3.47A1.38,1.38,0,0,1,127,97a1.41,1.41,0,0,1-.55.11,1.79,1.79,0,0,1-.64-0.13,1.91,1.91,0,0,1-.52-0.31l0.16-.18,0.15-.18a1.27,1.27,0,0,0,.38.24,1.12,1.12,0,0,0,.45.1,0.94,0.94,0,0,0,.39-0.08,1,1,0,0,0,.31-0.22,1.11,1.11,0,0,0,.21-0.34,1.17,1.17,0,0,0,.08-0.43V95.11l0-.12,0-.12a0.61,0.61,0,0,1-.13.17,1.13,1.13,0,0,1-.23.17,1.32,1.32,0,0,1-.31.12,1.41,1.41,0,0,1-.38,0,1.45,1.45,0,0,1-.58-0.11,1.43,1.43,0,0,1-.46-0.31A1.48,1.48,0,0,1,125,94.5a1.36,1.36,0,0,1-.11-0.55A1.39,1.39,0,0,1,125,93.4a1.55,1.55,0,0,1,.31-0.46,1.51,1.51,0,0,1,.46-0.32,1.43,1.43,0,0,1,.58-0.12,1.2,1.2,0,0,1,.38.06,1.38,1.38,0,0,1,.32.15,1.28,1.28,0,0,1,.23.18,0.48,0.48,0,0,1,.11.17c0-.08,0-0.16,0-0.24S127.46,92.66,127.46,92.57Zm-2.08,1.37a1,1,0,0,0,.29.71,1,1,0,0,0,.32.21,1,1,0,0,0,1.32-.52,1,1,0,0,0,0-.78,1,1,0,0,0-.21-0.32,1,1,0,0,0-.32-0.21,1,1,0,0,0-.79,0,0.94,0.94,0,0,0-.52.52A1,1,0,0,0,125.39,93.95Z" transform="translate(-42.61 -22.84)"/><path class="cls-2" d="M130.38,92.83l-0.12.17-0.13.17a0.68,0.68,0,0,0-.2-0.13,0.65,0.65,0,0,0-.3-0.07,0.46,0.46,0,0,0-.28.09,0.28,0.28,0,0,0-.1.27,0.26,0.26,0,0,0,.11.2,1.16,1.16,0,0,0,.24.13l0.3,0.12a1.36,1.36,0,0,1,.3.15,0.8,0.8,0,0,1,.23.24,0.72,0.72,0,0,1,.09.37,0.91,0.91,0,0,1,0,.26,0.83,0.83,0,0,1-.15.28,0.82,0.82,0,0,1-.28.22,1,1,0,0,1-.45.09,1.46,1.46,0,0,1-.49-0.09,0.91,0.91,0,0,1-.39-0.26l0.14-.16,0.14-.17a1.32,1.32,0,0,0,.3.17,0.91,0.91,0,0,0,.33.06h0.11l0.14-.06a0.52,0.52,0,0,0,.13-0.12,0.31,0.31,0,0,0,.06-0.2A0.31,0.31,0,0,0,130,94.3a0.69,0.69,0,0,0-.23-0.14l-0.3-.1a1.42,1.42,0,0,1-.31-0.13,0.64,0.64,0,0,1-.33-0.62,0.75,0.75,0,0,1,.08-0.36,0.72,0.72,0,0,1,.21-0.25,0.8,0.8,0,0,1,.27-0.14,0.93,0.93,0,0,1,.28,0l0.18,0,0.21,0,0.21,0.1A0.84,0.84,0,0,1,130.38,92.83Z" transform="translate(-42.61 -22.84)"/><path class="cls-2" d="M130.77,95a0.3,0.3,0,0,1,.1-0.23,0.3,0.3,0,0,1,.21-0.09,0.32,0.32,0,0,1,.31.32,0.28,0.28,0,0,1-.1.22,0.31,0.31,0,0,1-.21.08,0.32,0.32,0,0,1-.21-0.08A0.29,0.29,0,0,1,130.77,95Z" transform="translate(-42.61 -22.84)"/></g></svg>