<svg id="Layer_1" data-name="Layer 1" xmlns="http://www.w3.org/2000/svg" width="289.25" height="147.35" viewBox="0 0 289.25 147.35"><defs><style>.cls-1{fill:#00567d;}.cls-2{fill:#00bfd6;}</style></defs><title>second-block-logo</title><path class="cls-1" d="M7,120.65a9.69,9.69,0,0,0,6.87,3.25c2.91,0,5.25-1.89,5.25-4.73,0-6.56-13.1-5.24-13.1-13.48,0-3.7,3.21-6.8,8.12-6.8,2.57,0,7.17,1.09,7.17,4.57v1.89H18.82v-1.25c0-1.58-2.19-2.75-4.64-2.75-3.44,0-5.44,2-5.44,4.27,0,6.16,13.1,4.65,13.1,13.4,0,4-3.06,7.33-8,7.33a11.26,11.26,0,0,1-8.42-3.78Z" transform="translate(-5.38 -6.33)"/><path class="cls-1" d="M27.58,101.7H25.13V99.36H40.3c1.63,0,2.3.68,2.3,2.31v2.64H40.12v-1.78a0.74,0.74,0,0,0-.83-0.83H30.22v9.67h10v2.34h-10v9a0.74,0.74,0,0,0,.83.83h9.33a0.74,0.74,0,0,0,.83-0.83V121h2.46v2.64c0,1.62-.68,2.3-2.3,2.3H29.88c-1.62,0-2.3-.68-2.3-2.3V101.7Z" transform="translate(-5.38 -6.33)"/><path class="cls-1" d="M59.15,98.91c3.78,0,9.93,1.62,9.93,5.63v2.19H66.59v-1.47c0-2.5-4.31-3.85-7.36-3.85-5.89,0-10.42,4.61-10.42,11s4.49,11.44,10.54,11.44A12.13,12.13,0,0,0,68,120.12L69.53,122a14.09,14.09,0,0,1-10.23,4.31c-7.78,0-13.25-6.19-13.25-13.93S51.67,98.91,59.15,98.91Z" transform="translate(-5.38 -6.33)"/><path class="cls-1" d="M85.58,98.91A13.42,13.42,0,0,1,99.1,112.46a13.52,13.52,0,1,1-27,0A13.39,13.39,0,0,1,85.58,98.91Zm0,25c5.93,0,10.76-5,10.76-11.4a10.77,10.77,0,1,0-21.52,0C74.82,118.88,79.61,123.86,85.58,123.86Z" transform="translate(-5.38 -6.33)"/><path class="cls-1" d="M102.08,123.56h1.63a0.74,0.74,0,0,0,.83-0.83V99.36h2.42l13.56,18.92c0.91,1.32,2.15,3.47,2.15,3.47h0.08s-0.19-2.07-.19-3.47V101.66c0-1.63.68-2.31,2.3-2.31h2.79v2.34H126a0.74,0.74,0,0,0-.83.83V125.9h-2.41L109.22,107c-0.95-1.28-2.19-3.43-2.19-3.43h-0.07s0.23,2,.23,3.43V123.6c0,1.62-.68,2.3-2.3,2.3h-2.8v-2.34Z" transform="translate(-5.38 -6.33)"/><path class="cls-1" d="M134.29,101.7h-2.45V99.36h10.65c8,0,13.33,4.87,13.33,13.26s-5.32,13.29-13.33,13.29h-5.89c-1.63,0-2.3-.68-2.3-2.3V101.7Zm3.47,21.87h4.46c6.53,0,10.84-3.85,10.84-10.95s-4.34-10.92-10.84-10.92h-5.29v21A0.74,0.74,0,0,0,137.76,123.56Z" transform="translate(-5.38 -6.33)"/><path class="cls-1" d="M177.42,101.7H175V99.36h11.29c4.15,0,7.18,2.53,7.18,6.68a6.11,6.11,0,0,1-3.4,5.78v0.08c2.72,0.75,4.46,3.36,4.46,6.57,0,4.72-3.47,7.44-7.93,7.44h-6.83c-1.63,0-2.31-.68-2.31-2.3V101.7Zm8.8,9.18a4.34,4.34,0,0,0,4.49-4.65,4.24,4.24,0,0,0-4.53-4.53h-6.12v9.18h6.16Zm-5.32,12.69h5.66a4.8,4.8,0,0,0,5.17-5.18,4.94,4.94,0,0,0-5.21-5.25h-6.46v9.59A0.74,0.74,0,0,0,180.89,123.56Z" transform="translate(-5.38 -6.33)"/><path class="cls-1" d="M199.32,102.53a0.74,0.74,0,0,0-.83-0.83h-1.62V99.36h2.8c1.62,0,2.3.68,2.3,2.31v21.07a0.74,0.74,0,0,0,.83.83h8.8a0.74,0.74,0,0,0,.83-0.83V121h2.49v2.64c0,1.62-.68,2.3-2.31,2.3h-11c-1.62,0-2.3-.68-2.3-2.3V102.53Z" transform="translate(-5.38 -6.33)"/><path class="cls-1" d="M229.49,98.91A13.42,13.42,0,0,1,243,112.46a13.52,13.52,0,1,1-27,0A13.39,13.39,0,0,1,229.49,98.91Zm0,25c5.93,0,10.76-5,10.76-11.4a10.76,10.76,0,1,0-21.52,0C218.73,118.88,223.52,123.86,229.49,123.86Z" transform="translate(-5.38 -6.33)"/><path class="cls-1" d="M260,98.91c3.78,0,9.93,1.62,9.93,5.63v2.19h-2.49v-1.47c0-2.5-4.31-3.85-7.36-3.85-5.89,0-10.42,4.61-10.42,11s4.49,11.44,10.54,11.44a12.12,12.12,0,0,0,8.68-3.74l1.51,1.92a14.09,14.09,0,0,1-10.23,4.31c-7.78,0-13.25-6.19-13.25-13.93S252.52,98.91,260,98.91Z" transform="translate(-5.38 -6.33)"/><path class="cls-1" d="M276.76,102.53a0.74,0.74,0,0,0-.83-0.83h-1.62V99.36h2.8c1.62,0,2.3.68,2.3,2.31v9.21h3.17a2.33,2.33,0,0,0,2.23-.94l6.42-10.57h3l-6.83,11.14a4.32,4.32,0,0,1-1.36,1.47V112a2.9,2.9,0,0,1,1.29,1.51l4.6,9.14c0.38,0.8.94,0.87,1.93,0.87h0.75v2.34h-1.4c-2.15,0-2.79-.22-3.66-2l-4.83-9.71c-0.41-.87-1.28-1-2.41-1h-2.91V125.9h-2.65V102.53Z" transform="translate(-5.38 -6.33)"/><path class="cls-2" d="M141.9,48.89q8.44-8,11.2-13.86a29.13,29.13,0,0,0,2.75-12.53q0-7.47-3.05-11.82a10.2,10.2,0,0,0-8.9-4.35A14.83,14.83,0,0,0,136,8.59q-3.68,2.27-3.68,4.84,0,4.27,4.59,4.27a7.46,7.46,0,0,1,5.42,2,6.9,6.9,0,0,1,2.07,5.2,8.9,8.9,0,0,1-2.75,6.66,9.36,9.36,0,0,1-6.76,2.66,12.08,12.08,0,0,1-8.26-2.89,9.6,9.6,0,0,1-3.29-7.59,14.85,14.85,0,0,1,1.39-6.33,34.22,34.22,0,0,0,2.19,45.71L132.43,58Q138.69,52.27,141.9,48.89Z" transform="translate(-5.38 -6.33)"/><path class="cls-2" d="M151.22,73.28a34.09,34.09,0,0,0,15.09-3.5H136.14A34.09,34.09,0,0,0,151.22,73.28Z" transform="translate(-5.38 -6.33)"/><path class="cls-2" d="M173.75,32.81a24.6,24.6,0,0,1-7.86,6.71,145.18,145.18,0,0,1-13.37,5.77c-6,2.34-8.34,4-9,5.11v0.36c1.48-.12,2.18-0.21,4.11-0.27s4-.09,6.18-0.09h20.46a13.33,13.33,0,0,0,6.13-1.07c2.86-1.58,4.7-8.83,5-9.88,0-.13,0-0.26,0-0.4A34.12,34.12,0,0,0,175.52,15a16.6,16.6,0,0,1,1.75,7.72A15.87,15.87,0,0,1,173.75,32.81Z" transform="translate(-5.38 -6.33)"/><path class="cls-2" d="M103.54,150.15a4.5,4.5,0,0,0,3,1.47,1.57,1.57,0,0,0,1.78-1.47c0-2.11-5.84-1.94-5.84-5.8,0-2,1.75-3.5,4.14-3.5,1.45,0,3.69.68,3.69,2.45v1.15h-2.06v-0.56c0-.58-0.82-1-1.64-1a1.57,1.57,0,0,0-1.82,1.33c0,2.11,5.84,1.69,5.84,5.77,0,2-1.52,3.65-4.12,3.65a5.72,5.72,0,0,1-4.26-1.92Z" transform="translate(-5.38 -6.33)"/><path class="cls-2" d="M121.72,143h-1.9a0.35,0.35,0,0,0-.38.39v0.75h-2v-2a0.93,0.93,0,0,1,1.12-1.12h8.65a0.93,0.93,0,0,1,1.12,1.12v2h-2v-0.75a0.35,0.35,0,0,0-.38-0.39H124v10.47h-2.29V143Z" transform="translate(-5.38 -6.33)"/><path class="cls-2" d="M136.88,143.39a0.35,0.35,0,0,0-.38-0.39h-0.75v-1.94H138a1,1,0,0,1,1.19,1.19V149a2.59,2.59,0,0,0,5.17,0v-6.71a1,1,0,0,1,1.19-1.19h2.24V143H147a0.35,0.35,0,0,0-.38.39V149a4.5,4.5,0,0,1-4.86,4.63c-3,0-4.89-1.88-4.89-4.63v-5.66Z" transform="translate(-5.38 -6.33)"/><path class="cls-2" d="M156.24,143h-1.14v-1.94h5c3.83,0,6.32,2.27,6.32,6.18s-2.5,6.22-6.32,6.22h-2.72a1,1,0,0,1-1.19-1.19V143Zm2.67,8.53H160c2.48,0,4.07-1.48,4.07-4.28S162.48,143,160,143h-1.5v8.14A0.35,0.35,0,0,0,158.92,151.52Z" transform="translate(-5.38 -6.33)"/><path class="cls-2" d="M174,151.52h1.24V143H174v-1.94h4.65V143h-1.24v8.53h1.24v1.94H174v-1.94Z" transform="translate(-5.38 -6.33)"/><path class="cls-2" d="M192.51,140.85a6.27,6.27,0,0,1,6.41,6.33,6.41,6.41,0,1,1-12.82,0A6.27,6.27,0,0,1,192.51,140.85Zm0,10.7a4.17,4.17,0,0,0,4-4.37,4,4,0,1,0-8.07,0A4.17,4.17,0,0,0,192.51,151.54Z" transform="translate(-5.38 -6.33)"/></svg>