<svg id="Layer_1" data-name="Layer 1" xmlns="http://www.w3.org/2000/svg" width="58.87" height="52.47" viewBox="0 0 58.87 52.47"><defs><style>.cls-1{opacity:0.45;}.cls-2{fill:none;stroke:#231f20;stroke-width:0.3px;}.cls-3{fill:#010101;}</style></defs><title>simple-sugars</title><g class="cls-1"><rect class="cls-2" x="0.15" y="0.15" width="58.57" height="52.17"/><path class="cls-3" d="M90.76,59.43a2.65,2.65,0,0,0,.37-0.86,5.42,5.42,0,0,0,.18-1.48,10,10,0,0,0-.06-1.17A13.23,13.23,0,0,0,91,54.54a12,12,0,0,0-.36,1.65,10.71,10.71,0,0,0-.13,1.55,6.24,6.24,0,0,0,.08,1.07A1.72,1.72,0,0,0,90.76,59.43Z" transform="translate(-58.06 -33.76)"/><path class="cls-3" d="M92.57,55.27a2.19,2.19,0,0,0,.44,0,1.88,1.88,0,0,0,1.18-.38,1.78,1.78,0,0,0,.64-1.06,1.6,1.6,0,0,0,.06-0.48,1.78,1.78,0,0,0-.36-1.1,1.64,1.64,0,0,0-.41-0.39,0.92,0.92,0,0,0-.58-0.1H93.37a1.44,1.44,0,0,0-1,.33,3.52,3.52,0,0,0-.8,1,14,14,0,0,1,.56,2.34A0.42,0.42,0,0,1,92.57,55.27Z" transform="translate(-58.06 -33.76)"/><path class="cls-3" d="M71.22,55.72a3.89,3.89,0,0,0,1.08.15,6.94,6.94,0,0,0,1.5-.16,5,5,0,0,0,1.32-.48,10.33,10.33,0,0,0-1.39-.3,9.1,9.1,0,0,0-1.19-.09,4.17,4.17,0,0,0-1.26.16,1.08,1.08,0,0,0-.62.38A0.79,0.79,0,0,0,71.22,55.72Z" transform="translate(-58.06 -33.76)"/><path class="cls-3" d="M70.76,69a4.22,4.22,0,0,0-1.26.16,1.1,1.1,0,0,0-.62.38,0.79,0.79,0,0,0,.58.34,3.84,3.84,0,0,0,1.07.15,6.9,6.9,0,0,0,1.5-.16,5,5,0,0,0,1.32-.48,10.62,10.62,0,0,0-1.39-.3A9.17,9.17,0,0,0,70.76,69Z" transform="translate(-58.06 -33.76)"/><path class="cls-3" d="M107.49,64.6h-0.3V65h0.2c0.15,0,.37,0,0.37-0.19S107.62,64.6,107.49,64.6Z" transform="translate(-58.06 -33.76)"/><path class="cls-3" d="M107.41,64.21a0.83,0.83,0,1,0,.8.82A0.8,0.8,0,0,0,107.41,64.21Zm0.47,1.35h-0.15l-0.3-.49h-0.24v0.49h-0.13V64.5h0.46c0.28,0,.38.11,0.38,0.28a0.29,0.29,0,0,1-.33.29Z" transform="translate(-58.06 -33.76)"/><path class="cls-3" d="M103.88,69.5h-0.23a0.78,0.78,0,0,0-.31.09,0.61,0.61,0,0,0-.15.14l0.08,0a0.77,0.77,0,0,0,.23,0,2,2,0,0,0,.41-0.09,1.31,1.31,0,0,0,.33-0.19h-0.36Z" transform="translate(-58.06 -33.76)"/><path class="cls-3" d="M61.9,36.81v46h52v-46h-52Zm38.75,16.11,0.11-.06a2.07,2.07,0,0,1-.24-0.36A1.09,1.09,0,0,1,100.4,52a2.45,2.45,0,0,1,.09-0.52,1,1,0,0,1,.57-0.61,2.38,2.38,0,0,1,1.07-.24,3,3,0,0,1,1.25.23,0.67,0.67,0,0,1,.5.52,0.9,0.9,0,0,1,0,.19,0.44,0.44,0,0,1-.42.28,1.72,1.72,0,0,1-.45-0.15,2.24,2.24,0,0,0-.87-0.15l-0.32,0a1,1,0,0,0-.29.09c-0.09,0-.35.09-0.37,0.13s-0.25.07-.25,0.1V52a1.88,1.88,0,0,0,.32.28c0.09,0.08.26,0.14,0.31,0.19a2.3,2.3,0,0,1,.53-0.06,1.1,1.1,0,0,1,.57.16,0.53,0.53,0,0,1,.2.6,0.46,0.46,0,0,1-.3.36,1.28,1.28,0,0,1-.32.07,1.63,1.63,0,0,1-.65-0.14l-0.25.14a1.41,1.41,0,0,0-.3.26,0.67,0.67,0,0,0-.15.46,1.17,1.17,0,0,0,0,.31,1,1,0,0,0,.64.66,2.93,2.93,0,0,0,.67.1,2.07,2.07,0,0,0,1.39-.37,1.24,1.24,0,0,1,.57-0.38,0.43,0.43,0,0,1,.33.16,0.46,0.46,0,0,1,.14.31,0.47,0.47,0,0,1-.16.34,3.17,3.17,0,0,1-1.06.64,3.5,3.5,0,0,1-1.24.23,4.49,4.49,0,0,1-1.07-.2A1.68,1.68,0,0,1,100,54.92a2.06,2.06,0,0,1-.09-0.61A1.71,1.71,0,0,1,100.65,52.93Zm-4.52,2.28a2.23,2.23,0,0,0,.93-0.82,11.85,11.85,0,0,1-.15-2.9V50.58A9.69,9.69,0,0,1,97,48a2.53,2.53,0,0,1,.65-1.29,1.27,1.27,0,0,1,.73-0.3,1.66,1.66,0,0,1,.44.08,1.15,1.15,0,0,1,.65.49A2.23,2.23,0,0,1,99.9,48v0.22a14,14,0,0,1-.62,3.09A13.24,13.24,0,0,1,98,54.47a4.29,4.29,0,0,0,.22.53,1.56,1.56,0,0,0,.34.4,0.9,0.9,0,0,0,.6.19,1.48,1.48,0,0,0,.37,0,0.46,0.46,0,0,1,.35,0,0.42,0.42,0,0,1,.21.28,0.45,0.45,0,0,1,0,.35,0.43,0.43,0,0,1-.28.21,2.26,2.26,0,0,1-.62.09A1.7,1.7,0,0,1,98,56.16a3.06,3.06,0,0,1-.71-0.79,2.48,2.48,0,0,1-.7.64,1,1,0,0,1-.34.11A0.36,0.36,0,0,1,95.88,56a1.36,1.36,0,0,1-.08-0.3A0.46,0.46,0,0,1,96.12,55.21Zm-15,.18a0.66,0.66,0,0,0,0-.16L81.46,54c0-.22,0-0.53,0-0.92s0-.67,0-0.83l0-.89A0.51,0.51,0,0,1,81.45,51a0.38,0.38,0,0,1,.3-0.15,0.5,0.5,0,0,1,.34.14,0.42,0.42,0,0,1,.16.33l0,0.72a3.5,3.5,0,0,1,.8-1,1.52,1.52,0,0,1,1-.34,1.47,1.47,0,0,1,.77.23,1.37,1.37,0,0,1,.53.53,2.09,2.09,0,0,1,.16.38c0,0.05,0,.11,0,0.19a3.58,3.58,0,0,1,.85-1,1.68,1.68,0,0,1,1-.35,1.21,1.21,0,0,1,1,.35,1.66,1.66,0,0,1,.4.72,4.07,4.07,0,0,1,.09.89c0,0.19,0,.39,0,0.61s0,0.42-.05.58,0,0.29,0,.38,0,0.22,0,.38a1,1,0,0,0,0,.31,0.48,0.48,0,0,0,.15.23,0.54,0.54,0,0,0,.23.11l0.19,0a0.57,0.57,0,0,0,.35-0.13l0.15-.08a10.45,10.45,0,0,1,.67-2l-0.73-1.88,0-.19A0.38,0.38,0,0,1,90,50.64a0.75,0.75,0,0,1,.28-0.09,0.43,0.43,0,0,1,.42.28L91.16,52a3.15,3.15,0,0,1,1.11-1,2.51,2.51,0,0,1,1.14-.3,7.17,7.17,0,0,1,.72.07,1.79,1.79,0,0,1,1.11.86,3,3,0,0,1,.56,1.76,2.84,2.84,0,0,1,0,.33c0,0.08-.06.33-0.15,0.74a2.11,2.11,0,0,1-.86,1.18,2.8,2.8,0,0,1-1.77.56,4,4,0,0,1-.61,0A0.42,0.42,0,0,1,92.18,56l0,1a6.75,6.75,0,0,1-.18,1.72,3.64,3.64,0,0,1-.4,1,2.64,2.64,0,0,1-.4.51,0.61,0.61,0,0,1-.42.17,1,1,0,0,1-.45-0.12,1.1,1.1,0,0,1-.43-0.45A2.69,2.69,0,0,1,89.66,59a7.59,7.59,0,0,1-.09-1.26A14.53,14.53,0,0,1,89.69,56a2.57,2.57,0,0,1-.32-0.17H89.12a0.93,0.93,0,0,1-.52.07A0.65,0.65,0,0,1,88,55.46a3.11,3.11,0,0,1-.17-0.51,2.63,2.63,0,0,1,0-.32c0-.13,0-0.28,0-0.47s0-.37.06-0.56,0-.34,0-0.44,0-.27,0-0.5,0-.33,0-0.48a0.62,0.62,0,0,0-.16-0.37,0.46,0.46,0,0,0-.35-0.14,0.9,0.9,0,0,0-.68.35,4,4,0,0,0-.51.71,8.53,8.53,0,0,0-.42.89l0,0.11a6.73,6.73,0,0,1-.12,1.35,2.46,2.46,0,0,1-.29.83,0.92,0.92,0,0,1-.27.29,0.51,0.51,0,0,1-.23.05,0.85,0.85,0,0,1-.31-0.09,0.58,0.58,0,0,1-.2-0.58,3,3,0,0,1,0-.33c0-.12,0-0.3.09-0.52l0.39-1.28a2.78,2.78,0,0,0-.2-1.16,1.23,1.23,0,0,0-.37-0.53A0.64,0.64,0,0,0,84,51.67a0.77,0.77,0,0,0-.55.3,3.18,3.18,0,0,0-.57.87,11.32,11.32,0,0,0-.51,1.31,3.8,3.8,0,0,1-.21,1.51,1.58,1.58,0,0,1-.33.51,0.45,0.45,0,0,1-.27.09,0.62,0.62,0,0,1-.22,0,0.39,0.39,0,0,1-.2-0.2,0.71,0.71,0,0,1-.08-0.34A1.1,1.1,0,0,1,81.11,55.38Zm-0.87-.06,0.16-.06a0.39,0.39,0,0,1,.16,0,0.28,0.28,0,0,1,.32.17,0.41,0.41,0,0,1,0,.22V55.7a0.41,0.41,0,0,1-.23.44,1.86,1.86,0,0,1-.68.14A1.19,1.19,0,0,1,79.27,56a1.32,1.32,0,0,1-.35-0.82,6.3,6.3,0,0,1,0-1.35V52.36l0-.93A0.4,0.4,0,0,1,79,51.1,0.41,0.41,0,0,1,79.27,51a0.38,0.38,0,0,1,.3.13,0.46,0.46,0,0,1,.12.33l-0.09,1c0,0.33,0,.62,0,0.86s0,0.46,0,.65a5.84,5.84,0,0,0,.05.9,0.62,0.62,0,0,0,.18.41,0.41,0.41,0,0,0,.23.09A0.7,0.7,0,0,0,80.23,55.32Zm-1.31-6.51a0.62,0.62,0,1,1-.17.44A0.59,0.59,0,0,1,78.93,48.81Zm-8.86,5.73q0.35-.63,2.48-0.63a9.6,9.6,0,0,1,1.59.14,13,13,0,0,1,1.85.47,1.2,1.2,0,0,0,0-.4,1.22,1.22,0,0,0-.12-0.42V53.45a1,1,0,0,0-.31-0.86,7.81,7.81,0,0,0-1.73-1.15,13.22,13.22,0,0,1-2.18-1.35,2.06,2.06,0,0,1-.78-1.63V48.26A2,2,0,0,1,72,46.5a4.94,4.94,0,0,1,2.35-.57,5.36,5.36,0,0,1,1.45.19,3,3,0,0,1,1,.44,0.7,0.7,0,0,1,.32.52,0.51,0.51,0,0,1-.11.3,0.41,0.41,0,0,1-.36.15,0.65,0.65,0,0,1-.36-0.19A2.09,2.09,0,0,0,75.57,47a4.25,4.25,0,0,0-1.14-.15,3.79,3.79,0,0,0-1.77.38,1.22,1.22,0,0,0-.76,1v0.11a1.48,1.48,0,0,0,.75,1.26c0.47,0.31,1.11.66,1.87,1.07a10.94,10.94,0,0,1,1.82,1.17A2.05,2.05,0,0,1,77.12,53a4.9,4.9,0,0,1,.1.75,1.85,1.85,0,0,1-.06.47,3.18,3.18,0,0,1-.3.65l0.92,0.36a0.5,0.5,0,0,1,.4.45,0.39,0.39,0,0,1,0,.18,0.43,0.43,0,0,1-.42.26l-0.19,0-1.28-.49a4.88,4.88,0,0,1-1.84.92,8.15,8.15,0,0,1-2.17.3,4,4,0,0,1-1.55-.26A1.62,1.62,0,0,1,69.89,56a1.19,1.19,0,0,1-.18-0.57A2.35,2.35,0,0,1,70.06,54.54ZM76.37,70a0.43,0.43,0,0,1-.42.26l-0.19,0-1.28-.5a4.88,4.88,0,0,1-1.84.92,8.19,8.19,0,0,1-2.17.3,4,4,0,0,1-1.55-.27,1.61,1.61,0,0,1-.81-0.58,1.2,1.2,0,0,1-.18-0.57,2.39,2.39,0,0,1,.35-0.85Q68.64,68,70.77,68a9.52,9.52,0,0,1,1.59.14,12.7,12.7,0,0,1,1.85.47,3.66,3.66,0,0,0,.42-0.4,1.61,1.61,0,0,0,.27-0.42V67.56a1.71,1.71,0,0,0-.69-0.86,11,11,0,0,0-1.92-1.15,17,17,0,0,1-2.39-1.36,2.28,2.28,0,0,1-1-1.63V62.38a2.08,2.08,0,0,1,1.26-1.77A5.18,5.18,0,0,1,72.57,60a5.54,5.54,0,0,1,1.47.19,3.07,3.07,0,0,1,1,.44,0.7,0.7,0,0,1,.32.52,0.51,0.51,0,0,1-.1.3,0.4,0.4,0,0,1-.35.15,0.64,0.64,0,0,1-.36-0.19,2.08,2.08,0,0,0-.76-0.34,4.7,4.7,0,0,0-3,.23,1.36,1.36,0,0,0-.87,1V62.5a1.61,1.61,0,0,0,.87,1.26c0.47,0.31,1.16.66,1.92,1.07A11.31,11.31,0,0,1,74.54,66a2.1,2.1,0,0,1,.79,1.09,4.88,4.88,0,0,1,.11.75,1.79,1.79,0,0,1-.06.47,3.15,3.15,0,0,1-.29.66L76,69.32a0.5,0.5,0,0,1,.41.46A0.41,0.41,0,0,1,76.37,70Zm6.18,0.23a1.72,1.72,0,0,1-.78.22,1,1,0,0,1-.43-0.08A1.87,1.87,0,0,1,81,70.11a1.65,1.65,0,0,1-.33-0.42,2.76,2.76,0,0,1-.23-0.56,0.79,0.79,0,0,1-.12.19,3,3,0,0,1-.93.92,1.9,1.9,0,0,1-.92.26,4.56,4.56,0,0,1-.57-0.06,1.17,1.17,0,0,1-.76-0.59,3,3,0,0,1-.44-1,5.14,5.14,0,0,1-.1-1.09,7.18,7.18,0,0,1,.1-1.26q0.1-.58.21-1A0.88,0.88,0,0,1,77.17,65a0.36,0.36,0,0,1,.34,0,0.4,0.4,0,0,1,.34.42,5.59,5.59,0,0,1-.18.73,6.68,6.68,0,0,0-.18,1.72,2.53,2.53,0,0,0,.26,1.34,0.83,0.83,0,0,0,1.39.14,2.82,2.82,0,0,0,.44-0.76,1.91,1.91,0,0,0,.31-1V67.48a8.74,8.74,0,0,1,.22-1.15,4.39,4.39,0,0,1,.31-1A0.63,0.63,0,0,1,81,64.9a0.51,0.51,0,0,1,.49.28,0.79,0.79,0,0,1,.1.44,4,4,0,0,1-.13.94,10,10,0,0,1-.36,1.14,4.27,4.27,0,0,0,.1,1,1.39,1.39,0,0,0,.26.6,0.43,0.43,0,0,0,.3.17,0.6,0.6,0,0,0,.28-0.08,0.62,0.62,0,0,1,.28-0.08,0.37,0.37,0,0,1,.35.17,0.62,0.62,0,0,1,.1.3A0.47,0.47,0,0,1,82.55,70.19Zm7.35-.43a0.62,0.62,0,0,1-.55.44,4.32,4.32,0,0,0-.56.2,4.78,4.78,0,0,0-.63.34l0,1.38-0.06.72a2.76,2.76,0,0,1-.49,1.38,1.61,1.61,0,0,1-.63.53,1.54,1.54,0,0,1-.46.09,1.09,1.09,0,0,1-.82-0.38,1.53,1.53,0,0,1-.35-1.08,2.84,2.84,0,0,1,.22-1.05,3.62,3.62,0,0,1,.5-1.06,2.94,2.94,0,0,0,.82-1V69.58l0,0.16a2.7,2.7,0,0,1-1.72.62,3,3,0,0,1-1.55-.55,2.13,2.13,0,0,1-.86-2A4.1,4.1,0,0,1,82.86,67a2.66,2.66,0,0,1,.47-1,2.52,2.52,0,0,1,.78-0.74,3.6,3.6,0,0,1,.81-0.35,3.21,3.21,0,0,1,.84-0.11,3.73,3.73,0,0,1,.57,0A4.82,4.82,0,0,1,87,65a0.43,0.43,0,0,1,.34.44l0,0.11a1,1,0,0,1,.16-0.29L88,65l0.42,0.24a1,1,0,0,1,.15.38,2.66,2.66,0,0,1,0,.51,3.86,3.86,0,0,1,0,.54c0,0.2,0,.36-0.08.5a4.67,4.67,0,0,1-.14.51,5.15,5.15,0,0,1-.32.73l0.06,1.29a2.81,2.81,0,0,1,.87-0.38,1.07,1.07,0,0,1,.55,0,0.75,0.75,0,0,1,.41.28v0.12Zm11.18,0.47a1.48,1.48,0,0,1-.93.36,2.38,2.38,0,0,1-.66-0.16,1,1,0,0,1-.63-0.76,3.89,3.89,0,0,1-.17-1,3.08,3.08,0,0,1,0-.5c0-.17,0-0.32.08-0.46s0.06-.32.1-0.54A3.17,3.17,0,0,0,99,66.65a0.38,0.38,0,0,0-.09-0.33,0.37,0.37,0,0,0-.18-0.06,1.88,1.88,0,0,0-.45.07l-0.51.17-0.2.06a1.28,1.28,0,0,1-.33,0l0,0.25a5.79,5.79,0,0,1-.36,2,2.61,2.61,0,0,1-.78,1.26,2.52,2.52,0,0,1-.4.23l-0.07,0a2.31,2.31,0,0,1-.74.12,1.31,1.31,0,0,1-.72-0.17A1.36,1.36,0,0,1,93.76,70a2.43,2.43,0,0,1-.18-0.28l-0.09-.18a2.16,2.16,0,0,1-1.76.84L91,70.36a1.53,1.53,0,0,1-1-.75,3.33,3.33,0,0,1-.49-1.93,2.72,2.72,0,0,1,.32-1.3,2.38,2.38,0,0,1,.75-0.9,3.13,3.13,0,0,1,.75-0.4A2.22,2.22,0,0,1,92,65a2.6,2.6,0,0,1,.73.11,0.45,0.45,0,0,1,.37.46,1,1,0,0,1-.06.27,0.37,0.37,0,0,1-.41.18,1,1,0,0,1-.26,0,1.47,1.47,0,0,0-.4,0,1.25,1.25,0,0,0-.76.25,1.88,1.88,0,0,0-.57.67,1.86,1.86,0,0,0-.23.9,3.36,3.36,0,0,0,.27,1.47,1,1,0,0,0,.83.61h0.23a1.25,1.25,0,0,0,.62-0.42,1.57,1.57,0,0,0,.51-1.18V67.94a7.58,7.58,0,0,1,.31-1.57,4,4,0,0,1,.39-1.14,1,1,0,0,1,.48-0.41h0.09a1.47,1.47,0,0,0,.23.31,0.92,0.92,0,0,1,.17.7,4.39,4.39,0,0,1,0,.56c0,0.13-.05.4-0.1,0.76a6.31,6.31,0,0,1-.28,1.19,1.75,1.75,0,0,0,.31,1.11,0.55,0.55,0,0,0,.4.17,1.11,1.11,0,0,0,.37-0.06l0.14,0,0,0a2,2,0,0,0,.61-1,4.76,4.76,0,0,0,.27-1.6,3.05,3.05,0,0,0,0-.57L96,66.18a2.29,2.29,0,0,1-.32-0.3,0.84,0.84,0,0,1-.22-0.6,1.2,1.2,0,0,1,.08-0.36,0.47,0.47,0,0,1,.51-0.24,0.72,0.72,0,0,1,.52.27,2.19,2.19,0,0,1,.43.69,0.67,0.67,0,0,0,.23,0l0.19-.06,0.68-.19a2.33,2.33,0,0,1,.57-0.08,1.18,1.18,0,0,1,.65.18,1.07,1.07,0,0,1,.41.49,1.66,1.66,0,0,1,.13.65,2.35,2.35,0,0,1,0,.41c0,0.13,0,.32-0.09.56l-0.11.62a2.83,2.83,0,0,0,0,.48,2,2,0,0,0,.09.5,0.57,0.57,0,0,0,.37.42,0.33,0.33,0,0,0,.22,0,0.91,0.91,0,0,0,.23-0.14,0.4,0.4,0,0,1,.26-0.09,0.4,0.4,0,0,1,.35.16,0.54,0.54,0,0,1,.12.3A0.44,0.44,0,0,1,101.08,70.23Zm5.46,0a0.45,0.45,0,0,1-.4.21,0.4,0.4,0,0,1-.24-0.09l-0.09-.05a7.18,7.18,0,0,0-.62-0.44,2.46,2.46,0,0,1-.7.68,1.85,1.85,0,0,1-.94.29H103.4a1.21,1.21,0,0,1-.78-0.31,1,1,0,0,1-.36-0.64,1,1,0,0,1,.27-0.8,1,1,0,0,1,.73-0.31,1.56,1.56,0,0,1,.54.06H104a3.5,3.5,0,0,1,.77,0l0.11-.5V68.15a1.21,1.21,0,0,0-.37-0.73c-0.18-.18-0.37-0.33-0.5-0.45a3.29,3.29,0,0,1-.41-0.42,10.1,10.1,0,0,1-.76,1.62,5.55,5.55,0,0,1-.77,1.08,0.88,0.88,0,0,1-.53.32,0.42,0.42,0,0,1-.3-0.13,0.46,0.46,0,0,1-.13-0.33,1,1,0,0,1,.36-0.54,5.3,5.3,0,0,0,.84-1.36,8.09,8.09,0,0,0,.66-1.78,2.65,2.65,0,0,1-.11-0.64,1,1,0,0,1,.11-0.48,0.41,0.41,0,0,1,.39-0.2,0.49,0.49,0,0,1,.51.24,1.26,1.26,0,0,1,.1.51l0,0.51a1.74,1.74,0,0,0,.19.37,2.87,2.87,0,0,0,.25.33c0.1,0.11.25,0.26,0.47,0.47a5.34,5.34,0,0,1,.69.66,1.58,1.58,0,0,1,.36.9v0.23c0,0.09-.12.2-0.14,0.32s-0.09.25-.12,0.38l0.3,0.2,0.39,0.28,0.07,0a0.46,0.46,0,0,1,.21.41A0.52,0.52,0,0,1,106.54,70.21ZM107.41,66a0.95,0.95,0,1,1,.95-1A1,1,0,0,1,107.41,66Z" transform="translate(-58.06 -33.76)"/><path class="cls-3" d="M86.32,73.07a1.74,1.74,0,0,0,0,.31,0.67,0.67,0,0,0,.11.45,0.21,0.21,0,0,0,.24.08A0.65,0.65,0,0,0,87,73.55a1.67,1.67,0,0,0,.21-0.64,1.58,1.58,0,0,0-.12-0.49c0-.1-0.16-0.19-0.16-0.29V71.51a3,3,0,0,1-.54,1A1.34,1.34,0,0,0,86.32,73.07Z" transform="translate(-58.06 -33.76)"/><path class="cls-3" d="M86.84,65.91H86.7a3.06,3.06,0,0,0-.48-0.11,3.44,3.44,0,0,0-.49,0,2.31,2.31,0,0,0-1.18.36,1.45,1.45,0,0,0-.74.92,4.1,4.1,0,0,0-.13.81,1.39,1.39,0,0,0,.54,1.27,1.89,1.89,0,0,0,1,.35,1.6,1.6,0,0,0,1-.3,2.77,2.77,0,0,0,.54-0.5,4,4,0,0,0,.31-0.47V67.34a6,6,0,0,1,.18-1.78A0.46,0.46,0,0,1,86.84,65.91Z" transform="translate(-58.06 -33.76)"/><path class="cls-3" d="M98.64,48.91l0-.65a2.54,2.54,0,0,0-.06-0.69,1.31,1.31,0,0,0-.13-0.28,0.5,0.5,0,0,0-.37.15,3.15,3.15,0,0,0-.22,1,10.76,10.76,0,0,0,0,2.14v0.86c0,0.26-.22.52-0.21,0.79s-0.07.53,0,.8a14,14,0,0,0,.65-2A12.23,12.23,0,0,0,98.64,48.91Z" transform="translate(-58.06 -33.76)"/><path class="cls-3" d="M89.69,56.21a1.52,1.52,0,0,0,.66-0.3,0.45,0.45,0,0,0,.16-0.35,0.52,0.52,0,0,0-.12-0.32,0.39,0.39,0,0,0-.32-0.15,0.48,0.48,0,0,0-.19,0c0,0.08,0,.16-0.06.24C89.76,55.65,89.72,55.93,89.69,56.21Z" transform="translate(-58.06 -33.76)"/><path class="cls-3" d="M95.86,70.16a0.46,0.46,0,0,0,0-.35,0.43,0.43,0,0,0-.42-0.32l-0.08,0a0.6,0.6,0,0,0-.31.45,0.51,0.51,0,0,0,.11.3,0.4,0.4,0,0,0,.34.15,0.54,0.54,0,0,0,.16-0.05A0.49,0.49,0,0,0,95.86,70.16Z" transform="translate(-58.06 -33.76)"/></g></svg>