<svg id="Layer_1" data-name="Layer 1" xmlns="http://www.w3.org/2000/svg" width="33.03" height="33.03" viewBox="0 0 33.03 33.03"><defs><style>.cls-1{fill:#00bfd6;}.cls-2{fill:#fff;}</style></defs><title>twitter</title><circle class="cls-1" cx="16.52" cy="16.52" r="16.52"/><path class="cls-2" d="M37.29,18.39a9.53,9.53,0,0,1-2.74.75,4.78,4.78,0,0,0,2.1-2.64,9.54,9.54,0,0,1-3,1.16A4.77,4.77,0,0,0,25.5,22a13.53,13.53,0,0,1-9.82-5,4.77,4.77,0,0,0,1.47,6.36,4.75,4.75,0,0,1-2.16-.6v0.06a4.77,4.77,0,0,0,3.82,4.67,4.78,4.78,0,0,1-2.15.08,4.77,4.77,0,0,0,4.45,3.31,9.56,9.56,0,0,1-5.92,2,9.67,9.67,0,0,1-1.14-.07A13.55,13.55,0,0,0,34.92,21.47q0-.31,0-0.62A9.68,9.68,0,0,0,37.29,18.39Z" transform="translate(-8.48 -8.48)"/></svg>